<svg style="height: 48px; width: 48px;" xmlns="http://www.w3.org/2000/svg" viewBox="0 0 512 512">
  <g class="" style="" transform="translate(0,0)">
      <path
         d="m 189.1,20.24 -68.5,87.56 h 137 z m -55,105.56 V 225 l 45.4,45.4 -12.8,12.8 -73.77,-73.8 -70.81,67.4 h 15.96 v 215 H 141.1 v -94 H 71.35 l 48.05,-48 H 52.08 v -82 h 82.02 v 48 h 150.1 l 34.8,-46 h -97.9 v -17 h 23 v -127 z m 14,14 h 82 v 98 h -82 v -89 z m 18,18 v 14 h 14 v -14 z m 32,0 v 14 h 14 v -14 z m -32,32 v 30 h 14 v -30 z m 32,0 v 30 h 14 v -30 z m 64,32 v 30 h 70.5 l 16.5,-21.9 64.9,85.9 h 75.9 l -65.5,-94 z m 87,37.9 -72.8,96.5 -14.4,-10.8 8.8,-11.6 H 134.1 v 14 h 90.7 l 32,32 h 51.6 c -2.8,-5.8 -4.3,-12.2 -4.3,-19 0,-24.7 20.3,-45 45,-45 24.7,0 45,20.3 45,45 0,6.8 -1.5,13.2 -4.3,19 h 78.1 l 0.2,0.3 v -46.3 h -40.6 l 8.8,11.6 -14.4,10.8 z M 70.08,285.8 v 14 h 14 v -14 z m 32.02,0 v 14 h 14 v -14 z m -32.02,32 v 14 h 14 v -14 z m 32.02,0 v 14 h 14 v -14 z m 238,17.5 c -7.7,2.7 -13.8,8.8 -16.5,16.5 h 16.5 z m 18,0 v 16.5 h 16.5 c -2.7,-7.7 -8.8,-13.8 -16.5,-16.5 z m -229.3,30.5 -14,14 h 116.6 l -14,-14 z m 194.8,4 c 2.7,7.7 8.8,13.8 16.5,16.5 v -16.5 z m 34.5,0 v 16.5 c 7.7,-2.7 13.8,-8.8 16.5,-16.5 z m -153,28 v 94 h 103 v -46 h -11.3 l -38.4,-48 z m 76.3,0 24,30 h 172.9 l -20,-30 z m -229.32,14 h 66.02 v 66 H 52.08 v -57 z m 105.02,0 v 18 h 32 v -18 z m -87.02,18 v 30 h 30.02 v -30 z m 256.02,16 v 46 h 35 v -46 z m 53,0 v 46 h 36 v -46 z m 54,0 v 46 h 35 v -46 z"
         fill="#3c1c00" fill-opacity="1" id="path834"/>
   </g>
</svg>