<svg xmlns="http://www.w3.org/2000/svg" xmlns:xlink="http://www.w3.org/1999/xlink" width="151px" height="58px" viewBox="0 0 151 58">
  <path fill-rule="evenodd" stroke="rgb(60, 28, 0)" fill="rgb(60, 28, 0)"
    d="M143.853,43.455 C143.564,43.228 143.095,43.228 142.447,43.455 L142.096,44.861 C140.931,45.275 140.111,46.213 139.635,47.673 L138.580,48.728 L138.580,49.431 L137.525,49.783 L137.525,50.486 C137.236,51.181 136.767,51.416 136.119,51.189 C134.783,51.408 133.963,51.056 133.658,50.134 L132.955,50.134 C132.885,49.736 133.002,49.150 133.306,48.377 C133.463,47.673 133.580,47.205 133.658,46.970 C134.377,46.752 134.963,46.166 135.416,45.213 L135.767,44.861 C136.291,44.642 136.759,44.174 137.174,43.455 C137.658,43.556 137.892,43.322 137.877,42.752 C138.111,42.791 138.346,42.674 138.580,42.400 L139.635,42.048 L141.041,42.048 L141.392,41.697 C141.892,41.931 142.595,42.048 143.502,42.048 L145.260,42.048 L145.260,43.103 C144.705,43.009 144.236,43.127 143.853,43.455 ZM138.580,43.806 C138.283,43.994 137.931,44.463 137.525,45.213 L137.174,45.564 C136.033,45.924 135.564,46.861 135.767,48.377 C135.634,49.361 136.103,49.595 137.174,49.080 L137.877,47.673 L138.931,46.970 L139.283,46.619 C139.963,44.916 139.728,43.978 138.580,43.806 ZM131.209,43.232 L131.209,47.099 L130.506,48.154 L130.506,48.857 C130.147,49.037 129.912,49.388 129.803,49.912 L128.748,50.615 L126.991,50.263 C125.897,51.498 124.490,51.967 122.772,51.670 C122.494,50.866 122.487,49.777 122.729,48.426 C122.568,48.479 122.421,48.536 122.198,48.564 C121.401,50.642 119.643,51.697 116.925,51.728 L116.573,49.970 L116.221,49.619 C116.409,49.291 116.526,48.822 116.573,48.213 L115.870,48.213 L115.870,48.916 C115.346,49.134 114.878,49.603 114.464,50.322 L113.057,50.673 L113.057,50.126 C112.452,50.342 111.843,50.757 111.230,51.377 L110.175,51.377 C108.917,49.697 107.745,49.697 106.659,51.377 C106.105,51.283 105.636,51.400 105.253,51.728 L104.550,51.728 C104.253,51.127 103.784,50.775 103.144,50.673 L103.495,49.267 L103.495,48.564 C104.097,48.267 104.448,47.799 104.550,47.158 C105.011,46.916 105.362,46.447 105.605,45.752 C106.722,45.533 107.777,44.713 108.769,43.291 C109.284,43.158 109.753,42.806 110.175,42.236 L112.988,42.588 L112.988,41.884 C113.487,42.025 113.956,42.494 114.394,43.291 C113.956,43.580 113.722,44.166 113.691,45.048 C112.487,45.353 111.784,46.291 111.581,47.861 C111.011,48.072 110.777,48.658 110.878,49.619 C112.347,49.447 113.402,48.744 114.042,47.509 C114.266,47.540 114.325,47.811 114.231,48.307 C114.452,48.091 114.652,47.836 114.815,47.509 C115.917,47.259 116.854,46.556 117.628,45.400 C118.557,45.205 119.260,44.385 119.737,42.939 L120.089,42.236 C120.878,42.103 121.346,41.517 121.495,40.478 L122.198,40.127 L122.550,39.423 L122.901,38.720 L122.901,37.314 C123.042,37.017 123.393,36.783 123.956,36.611 L124.307,36.259 C124.721,36.150 125.425,36.267 126.417,36.611 C126.448,37.213 126.214,37.681 125.714,38.017 L125.714,38.720 C125.354,38.900 125.120,39.252 125.011,39.775 C124.549,40.017 124.198,40.486 123.956,41.181 C123.635,41.564 123.401,41.799 123.253,41.884 L122.901,42.939 C122.135,43.361 121.667,44.181 121.495,45.400 L120.792,45.752 L120.792,46.806 C120.557,46.884 120.323,47.119 120.089,47.509 L119.386,48.213 L119.386,49.619 C120.151,49.548 120.737,49.080 121.143,48.213 C122.026,48.259 122.612,47.791 122.901,46.806 C123.185,47.149 123.299,47.424 123.336,47.669 C123.383,47.601 123.429,47.532 123.475,47.451 C125.717,47.545 127.358,46.490 128.397,44.287 C129.162,44.021 129.748,43.318 130.155,42.177 C130.865,42.021 131.451,41.435 131.912,40.420 L133.319,40.420 L133.319,41.474 L132.264,42.529 L131.209,43.232 ZM110.878,45.400 C111.011,44.806 110.777,44.338 110.175,43.994 C109.691,44.463 108.870,44.814 107.714,45.048 L107.363,45.400 C104.784,50.728 105.956,50.728 110.878,45.400 ZM127.342,47.099 C127.092,47.467 126.623,47.935 125.936,48.506 L125.584,49.209 C125.842,50.185 126.311,50.303 126.991,49.560 C128.631,47.771 128.748,46.951 127.342,47.099 ZM115.448,9.920 C115.088,10.100 114.854,10.452 114.744,10.975 C114.283,11.217 113.932,11.686 113.690,12.381 C113.369,12.764 113.135,12.999 112.987,13.084 L112.635,14.139 C111.869,14.561 111.401,15.381 111.229,16.600 L110.526,16.952 L110.526,18.006 C110.291,18.084 110.057,18.319 109.823,18.709 L109.119,19.413 L109.119,20.819 C109.885,20.748 110.471,20.280 110.877,19.413 C111.760,19.459 112.346,18.991 112.635,18.006 C113.471,19.014 113.237,19.600 111.932,19.764 C111.135,21.842 109.377,22.897 106.658,22.928 L106.307,21.170 L105.955,20.819 C106.143,20.491 106.260,20.022 106.307,19.413 L105.604,19.413 L105.604,20.116 C105.080,20.334 104.612,20.803 104.198,21.522 L102.791,21.873 L102.791,20.116 C103.557,19.991 104.143,19.522 104.549,18.709 C105.651,18.459 106.588,17.756 107.362,16.600 C108.291,16.405 108.994,15.585 109.471,14.139 L109.823,13.436 C110.612,13.303 111.080,12.717 111.229,11.678 L111.932,11.327 L112.283,10.623 L112.635,9.920 L112.635,8.514 C112.776,8.217 113.127,7.983 113.690,7.811 L114.041,7.459 C114.455,7.350 115.158,7.467 116.151,7.811 C116.182,8.413 115.947,8.881 115.448,9.217 L115.448,9.920 ZM103.296,16.131 L102.944,16.483 C102.538,16.428 102.186,16.663 101.889,17.186 C101.210,16.975 100.624,17.209 100.132,17.889 C99.616,17.850 99.030,18.084 98.374,18.592 L98.374,19.647 C99.475,20.209 100.530,19.975 101.538,18.944 L102.593,18.944 L102.593,19.998 C101.616,20.077 100.796,20.663 100.132,21.756 L98.725,21.756 C98.077,22.053 97.022,21.702 95.561,20.702 C95.569,20.280 95.803,19.577 96.264,18.592 L96.264,17.889 C95.413,18.053 94.866,17.741 94.624,16.952 C94.241,15.764 94.671,15.608 95.913,16.483 C97.569,16.959 98.858,16.256 99.780,14.373 C100.514,14.280 101.217,13.811 101.889,12.967 C102.382,13.202 103.085,13.319 103.999,13.319 L104.350,13.670 C104.358,14.334 104.006,14.920 103.296,15.428 L103.296,16.131 ZM101.186,14.725 L100.483,15.077 C100.514,15.498 100.280,15.733 99.780,15.780 C99.952,16.522 100.303,16.639 100.835,16.131 C101.866,15.749 101.983,15.280 101.186,14.725 ZM95.913,9.979 L95.562,10.682 L94.859,11.737 L94.156,12.791 L93.804,13.846 L93.101,14.198 L93.101,14.901 L92.398,15.604 L91.695,15.956 L91.695,16.659 L90.991,18.065 L90.640,19.471 L90.288,19.823 C90.999,20.198 91.937,20.198 93.101,19.823 L93.101,20.526 L92.398,20.526 C91.757,22.221 90.351,22.690 88.179,21.932 L87.827,20.877 L87.124,20.877 C84.499,23.495 83.210,23.026 83.257,19.471 C82.773,19.370 82.538,19.604 82.554,20.174 C81.984,20.174 81.749,19.823 81.851,19.120 C83.413,18.948 84.585,18.010 85.366,16.307 C86.499,16.104 87.437,15.401 88.179,14.198 C89.085,14.127 89.788,13.659 90.288,12.791 L91.695,13.495 L91.695,12.791 C92.413,12.557 92.882,11.971 93.101,11.034 C93.976,10.510 94.444,9.690 94.507,8.573 L94.859,8.221 L93.804,7.518 C94.288,7.620 94.523,7.385 94.507,6.815 C95.210,6.940 95.913,6.706 96.616,6.112 L97.320,6.112 C97.499,6.448 97.616,6.917 97.671,7.518 L96.968,9.276 L95.913,9.979 ZM89.937,15.252 L89.234,15.252 L88.882,15.956 C87.265,16.120 86.327,17.057 86.070,18.768 C85.499,18.979 85.265,19.565 85.366,20.526 C86.866,20.120 88.156,18.948 89.234,17.010 C89.554,16.628 89.788,16.393 89.937,16.307 L89.937,15.252 ZM77.704,40.654 L76.649,40.654 C76.149,40.841 75.680,41.310 75.243,42.060 C74.094,42.638 73.274,43.693 72.782,45.224 C72.321,45.467 71.969,45.935 71.727,46.631 C71.008,46.904 70.657,47.490 70.673,48.388 L69.969,48.740 L69.618,49.443 L69.969,51.201 C71.852,51.615 73.493,51.029 74.891,49.443 C75.524,49.279 75.876,49.513 75.946,50.146 C75.360,50.279 75.008,50.631 74.891,51.201 C73.993,51.365 73.290,51.834 72.782,52.607 C68.626,53.591 66.751,52.537 67.157,49.443 C67.688,49.279 67.922,48.810 67.860,48.037 C68.649,47.904 69.118,47.318 69.266,46.279 L69.969,45.927 L70.673,45.576 L70.673,44.873 C70.907,44.818 71.141,44.584 71.376,44.170 L72.079,43.818 L72.079,43.115 L73.133,42.412 L73.485,41.709 L74.540,41.006 L74.891,39.951 C75.626,39.857 76.329,39.388 77.001,38.545 C77.672,38.631 78.141,38.396 78.407,37.841 C79.438,37.896 80.376,38.248 81.219,38.896 C80.798,39.388 80.563,40.209 80.516,41.357 C78.923,42.529 77.985,42.295 77.704,40.654 ZM72.934,19.061 C72.363,19.272 72.129,19.858 72.231,20.819 C73.699,20.647 74.754,19.944 75.395,18.709 C75.801,18.764 75.684,19.584 75.043,21.170 C74.231,21.272 73.410,21.741 72.582,22.577 L71.528,22.577 C70.270,20.897 69.098,20.897 68.012,22.577 C67.457,22.483 66.988,22.600 66.606,22.928 L65.903,22.928 C65.606,22.327 65.137,21.975 64.496,21.873 L64.848,20.467 L64.848,19.764 C65.449,19.467 65.801,18.999 65.903,18.358 C66.363,18.116 66.715,17.647 66.957,16.952 C68.074,16.733 69.129,15.913 70.121,14.491 C70.637,14.358 71.106,14.006 71.528,13.436 L74.340,13.788 L74.340,13.084 C74.840,13.225 75.309,13.694 75.746,14.491 C75.309,14.780 75.074,15.366 75.043,16.248 C73.840,16.553 73.137,17.491 72.934,19.061 ZM71.528,15.194 C71.043,15.663 70.223,16.014 69.067,16.248 L68.715,16.600 C66.137,21.928 67.309,21.928 72.231,16.600 C72.363,16.006 72.129,15.538 71.528,15.194 ZM62.739,6.756 L63.794,5.702 C64.216,5.725 64.684,6.194 65.200,7.108 C64.075,9.272 63.255,9.155 62.739,6.756 ZM61.684,20.116 L61.684,20.819 C61.450,20.881 61.216,21.116 60.981,21.522 C60.379,21.514 59.911,21.866 59.575,22.577 C57.512,22.710 56.458,21.772 56.411,19.764 C56.997,19.280 57.348,18.694 57.466,18.006 C58.622,17.663 59.090,16.725 58.872,15.194 L58.169,15.194 L58.520,14.491 L59.223,14.139 C59.911,14.311 60.614,14.077 61.333,13.436 C61.676,14.061 61.794,14.881 61.684,15.897 C57.973,20.045 57.973,21.217 61.684,19.413 C61.934,19.045 62.397,19.004 63.073,19.289 C63.749,19.575 63.286,19.850 61.684,20.116 ZM56.528,9.979 L56.177,10.682 L55.474,11.737 L54.771,12.791 L54.419,13.846 L53.716,14.198 L53.716,14.901 L53.013,15.604 L52.310,15.956 L52.310,16.659 L51.607,18.065 L51.255,19.471 L50.903,19.823 C51.614,20.198 52.552,20.198 53.716,19.823 L53.716,20.526 L53.013,20.526 C52.372,22.221 50.966,22.690 48.794,21.932 L48.443,20.877 L47.739,20.877 C45.114,23.495 43.825,23.026 43.872,19.471 C43.388,19.370 43.153,19.604 43.169,20.174 C42.797,20.174 42.583,20.009 42.497,19.710 C42.404,20.090 42.238,20.576 41.998,21.170 C41.185,21.272 40.365,21.741 39.537,22.577 L38.482,22.577 C37.224,20.897 36.052,20.897 34.966,22.577 C34.412,22.483 33.943,22.600 33.560,22.928 L32.857,22.928 C32.560,22.327 32.091,21.975 31.451,21.873 L31.802,20.467 L31.802,19.764 C32.404,19.467 32.755,18.999 32.857,18.358 C33.318,18.116 33.670,17.647 33.912,16.952 C35.029,16.733 36.084,15.913 37.076,14.491 C37.591,14.358 38.060,14.006 38.482,13.436 L41.295,13.788 L41.295,13.084 C41.794,13.225 42.263,13.694 42.701,14.491 C42.263,14.780 42.029,15.366 41.998,16.248 C40.795,16.553 40.091,17.491 39.888,19.061 C39.318,19.272 39.084,19.858 39.185,20.819 C40.654,20.647 41.709,19.944 42.349,18.709 C42.502,18.730 42.581,18.860 42.585,19.099 C44.087,18.892 45.221,17.966 45.982,16.307 C47.114,16.104 48.052,15.401 48.794,14.198 C49.700,14.127 50.403,13.659 50.903,12.791 L52.310,13.495 L52.310,12.791 C53.028,12.557 53.497,11.971 53.716,11.034 C54.591,10.510 55.060,9.690 55.122,8.573 L55.474,8.221 L54.419,7.518 C54.903,7.620 55.138,7.385 55.122,6.815 C55.825,6.940 56.528,6.706 57.232,6.112 L57.935,6.112 C58.114,6.448 58.232,6.917 58.286,7.518 L57.583,9.276 L56.528,9.979 ZM39.185,16.600 C39.318,16.006 39.084,15.538 38.482,15.194 C37.998,15.663 37.177,16.014 36.021,16.248 L35.670,16.600 C33.091,21.928 34.263,21.928 39.185,16.600 ZM50.552,15.252 L49.849,15.252 L49.497,15.956 C47.880,16.120 46.943,17.057 46.685,18.768 C46.114,18.979 45.880,19.565 45.982,20.526 C47.482,20.120 48.771,18.948 49.849,17.010 C50.169,16.628 50.403,16.393 50.552,16.307 L50.552,15.252 ZM28.346,17.772 C27.901,18.178 27.549,18.881 27.291,19.881 C26.807,19.780 26.572,20.014 26.588,20.584 C25.822,20.655 25.236,21.123 24.830,21.991 C24.596,22.053 24.361,22.288 24.127,22.694 L23.072,23.045 C22.807,22.850 22.338,22.733 21.666,22.694 L21.315,23.045 C21.221,22.491 20.869,22.022 20.260,21.639 L20.260,20.233 L20.963,18.827 C21.354,18.358 21.588,18.006 21.666,17.772 L22.018,16.366 L23.776,14.608 L24.127,13.905 L24.479,12.850 L25.182,12.498 L25.533,11.795 L26.236,10.741 L26.588,9.686 L27.291,8.983 C26.994,8.780 26.525,8.663 25.885,8.631 C25.119,7.764 25.119,7.295 25.885,7.225 C26.721,7.295 27.541,7.178 28.346,6.873 L29.752,6.873 C29.940,7.202 30.057,7.670 30.104,8.280 C29.408,8.694 28.939,9.397 28.697,10.389 C28.338,10.569 28.104,10.920 27.994,11.444 C27.299,11.858 26.830,12.561 26.588,13.553 C25.666,14.178 25.080,15.116 24.830,16.366 L24.127,17.069 L23.776,17.772 L23.072,18.827 L23.072,20.936 C23.768,20.772 24.354,20.303 24.830,19.530 L25.182,19.178 L26.236,18.475 C26.557,18.092 26.791,17.858 26.940,17.772 L26.940,14.959 L27.291,13.553 C27.846,13.647 28.315,13.530 28.697,13.202 L29.401,13.202 C29.369,16.702 30.541,17.522 32.916,15.663 C31.682,16.819 30.744,17.522 30.104,17.772 L28.346,17.772 ZM19.639,14.373 C19.124,14.600 18.655,15.069 18.233,15.780 L17.881,16.483 L17.530,17.186 C17.045,17.085 16.811,17.319 16.827,17.889 L16.475,18.592 C16.319,18.881 15.967,19.116 15.421,19.295 L15.421,19.998 C14.967,20.748 14.850,21.569 15.069,22.459 L16.827,22.108 C17.124,21.920 17.475,21.452 17.881,20.702 C18.405,20.483 18.874,20.014 19.288,19.295 C19.999,19.725 19.647,20.663 18.233,22.108 L16.827,23.163 L15.421,23.514 L13.311,23.514 C12.709,22.811 12.475,21.756 12.608,20.350 L11.553,21.053 L11.905,19.998 C12.756,19.827 13.342,19.241 13.663,18.241 C14.233,18.217 14.702,17.748 15.069,16.834 C15.655,16.350 16.006,15.764 16.124,15.077 C16.483,14.897 16.717,14.545 16.827,14.022 C18.788,12.600 18.788,11.428 16.827,10.506 C16.280,10.616 15.811,10.967 15.421,11.561 L14.014,12.264 L13.311,12.264 L13.311,11.561 C13.795,11.663 14.030,11.428 14.014,10.858 C14.671,10.780 15.139,10.311 15.421,9.452 L17.178,9.100 L17.530,8.397 L18.233,8.397 L19.639,9.100 L19.639,9.803 C20.444,9.022 21.499,8.670 22.803,8.748 L22.803,10.506 C22.264,10.827 21.913,11.295 21.749,11.913 C20.928,12.295 20.225,13.116 19.639,14.373 ZM9.796,17.889 C8.608,18.803 8.022,20.209 8.038,22.108 C8.920,22.108 9.624,21.873 10.147,21.405 L10.850,21.405 L11.202,21.756 C10.717,21.655 10.483,21.889 10.499,22.459 C9.944,22.538 9.475,22.889 9.092,23.514 C6.670,23.959 5.381,23.256 5.225,21.405 C5.733,21.053 6.319,20.233 6.983,18.944 C7.217,18.866 7.452,18.631 7.686,18.241 L8.389,17.538 L8.389,16.834 C8.920,16.780 9.272,16.428 9.444,15.780 L10.499,15.077 C10.467,14.655 10.702,14.420 11.202,14.373 L11.553,13.670 C12.022,13.749 12.256,13.514 12.256,12.967 L12.608,12.967 L12.608,13.670 C12.233,13.834 11.999,14.186 11.905,14.725 C10.967,15.139 10.264,16.194 9.796,17.889 ZM78.535,48.564 C79.137,48.267 79.488,47.799 79.590,47.158 C80.051,46.916 80.402,46.447 80.645,45.752 C81.762,45.533 82.817,44.713 83.809,43.291 C84.324,43.158 84.793,42.806 85.215,42.236 L88.028,42.588 L88.028,41.884 C88.527,42.025 88.996,42.494 89.434,43.291 C88.996,43.580 88.762,44.166 88.731,45.048 C87.527,45.353 86.824,46.291 86.621,47.861 C86.051,48.072 85.817,48.658 85.918,49.619 C87.387,49.447 88.442,48.744 89.082,47.509 C89.235,47.530 89.314,47.660 89.318,47.899 C90.820,47.692 91.954,46.766 92.715,45.107 C93.847,44.904 94.785,44.201 95.527,42.998 C96.433,42.927 97.136,42.459 97.636,41.591 L99.043,42.295 L99.043,41.591 C99.761,41.357 100.230,40.771 100.449,39.834 C101.324,39.310 101.793,38.490 101.855,37.373 L102.207,37.021 L101.152,36.318 C101.636,36.420 101.871,36.185 101.855,35.615 C102.558,35.740 103.261,35.506 103.965,34.912 L104.668,34.912 C104.847,35.248 104.965,35.717 105.019,36.318 L104.316,38.076 L103.261,38.779 L102.910,39.482 L102.207,40.537 L101.504,41.591 L101.152,42.646 L100.449,42.998 L100.449,43.701 L99.746,44.404 L99.043,44.756 L99.043,45.459 L98.340,46.865 L97.988,48.271 L97.636,48.623 C98.347,48.998 99.285,48.998 100.449,48.623 L100.449,49.326 L99.746,49.326 C99.105,51.021 97.699,51.490 95.527,50.732 L95.176,49.677 L94.472,49.677 C91.847,52.295 90.558,51.826 90.605,48.271 C90.121,48.170 89.886,48.404 89.902,48.974 C89.530,48.974 89.316,48.809 89.230,48.510 C89.137,48.890 88.971,49.376 88.731,49.970 C87.918,50.072 87.098,50.541 86.270,51.377 L85.215,51.377 C83.957,49.697 82.785,49.697 81.699,51.377 C81.145,51.283 80.676,51.400 80.293,51.728 L79.590,51.728 C79.293,51.127 78.824,50.775 78.184,50.673 L78.535,49.267 L78.535,48.564 ZM92.715,49.326 C94.215,48.920 95.504,47.748 96.582,45.810 C96.902,45.428 97.136,45.193 97.285,45.107 L97.285,44.052 L96.582,44.052 L96.230,44.756 C94.613,44.920 93.676,45.857 93.418,47.568 C92.847,47.779 92.613,48.365 92.715,49.326 ZM85.918,45.400 C86.051,44.806 85.817,44.338 85.215,43.994 C84.731,44.463 83.910,44.814 82.754,45.048 L82.403,45.400 C79.824,50.728 80.996,50.728 85.918,45.400 Z" />
</svg>