<svg xmlns="http://www.w3.org/2000/svg" xmlns:xlink="http://www.w3.org/1999/xlink" width="105px" height="29px"
  viewBox="0 0 105 29">
  <path fill-rule="evenodd" stroke="rgb(60, 28, 0)" fill="rgb(60, 28, 0)"
    d="M99.308,13.903 C98.870,14.192 98.636,14.778 98.604,15.661 C97.401,15.966 96.698,16.903 96.495,18.474 C95.925,18.684 95.690,19.270 95.792,20.231 C97.261,20.060 98.315,19.356 98.956,18.122 C99.362,18.177 99.245,18.997 98.604,20.583 C97.792,20.685 96.972,21.153 96.144,21.989 L95.089,21.989 C93.831,20.310 92.659,20.310 91.573,21.989 C91.018,21.895 90.550,22.013 90.167,22.341 L89.464,22.341 C89.167,21.739 88.698,21.388 88.058,21.286 L88.409,19.880 L88.409,19.177 C89.011,18.880 89.362,18.411 89.464,17.770 C89.925,17.528 90.276,17.060 90.519,16.364 C91.636,16.146 92.690,15.325 93.683,13.903 C94.198,13.770 94.667,13.419 95.089,12.849 L97.901,13.200 L97.901,12.497 C98.401,12.638 98.870,13.106 99.308,13.903 ZM95.089,14.606 C94.604,15.075 93.784,15.427 92.628,15.661 L92.276,16.013 C89.698,21.341 90.870,21.341 95.792,16.013 C95.925,15.419 95.690,14.950 95.089,14.606 ZM86.300,6.169 L87.355,5.114 C87.777,5.138 88.246,5.606 88.761,6.520 C87.636,8.685 86.816,8.567 86.300,6.169 ZM85.246,19.528 L85.246,20.231 C85.011,20.294 84.777,20.528 84.542,20.934 C83.941,20.927 83.472,21.278 83.136,21.989 C81.074,22.122 80.019,21.185 79.972,19.177 C80.558,18.692 80.910,18.106 81.027,17.419 C82.183,17.075 82.652,16.138 82.433,14.606 L81.730,14.606 L82.081,13.903 L82.785,13.552 C83.472,13.724 84.175,13.489 84.894,12.849 C85.238,13.474 85.355,14.294 85.246,15.309 C81.535,19.458 81.535,20.630 85.246,18.825 C85.495,18.458 85.958,18.417 86.634,18.702 C87.310,18.987 86.847,19.263 85.246,19.528 ZM78.156,18.767 C79.656,19.399 79.187,20.220 76.750,21.227 C75.851,21.813 74.680,22.048 73.234,21.931 C72.961,21.306 72.844,20.368 72.883,19.118 C73.703,18.735 74.406,17.915 74.992,16.657 L75.695,16.657 L76.047,14.899 L74.992,15.602 C74.172,15.493 73.703,15.962 73.586,17.009 C73.101,16.907 72.867,17.142 72.883,17.712 C71.937,17.978 71.351,18.681 71.125,19.821 C70.586,20.142 70.234,20.610 70.070,21.227 C69.226,21.626 68.523,21.392 67.961,20.524 C68.594,20.087 69.062,19.384 69.367,18.415 C69.734,18.267 69.969,17.915 70.070,17.360 L70.773,17.009 L70.773,16.306 L71.476,15.954 C71.398,15.267 70.930,15.032 70.070,15.251 C70.500,14.860 70.969,14.157 71.476,13.142 L73.586,13.142 C74.015,15.040 74.601,15.157 75.344,13.493 L76.398,12.790 L77.805,12.790 L78.508,13.845 L78.508,15.954 C78.273,16.009 78.039,16.243 77.805,16.657 C76.601,17.087 75.664,18.259 74.992,20.173 C76.219,20.321 77.273,19.853 78.156,18.767 ZM67.258,18.415 C67.023,18.470 66.789,18.704 66.555,19.118 C65.734,19.501 65.031,20.321 64.445,21.579 L64.094,21.931 L63.039,21.931 C62.758,20.056 62.523,19.587 62.336,20.524 L61.633,20.524 C61.766,19.540 62.352,18.837 63.391,18.415 C62.898,19.009 63.016,19.360 63.742,19.470 L64.094,18.415 L63.742,17.712 C64.226,17.813 64.461,17.579 64.445,17.009 C66.297,16.454 66.531,15.868 65.148,15.251 L65.148,14.548 C65.383,14.493 65.617,14.259 65.851,13.845 C66.391,14.040 66.976,13.923 67.609,13.493 C68.805,13.556 69.391,14.259 69.367,15.602 C69.133,15.657 68.898,15.892 68.664,16.306 C67.773,16.603 67.305,17.306 67.258,18.415 ZM61.387,15.544 L61.036,15.895 C60.629,15.841 60.278,16.075 59.981,16.599 C59.301,16.388 58.715,16.622 58.223,17.302 C57.707,17.263 57.121,17.497 56.465,18.005 L56.465,19.059 C57.567,19.622 58.621,19.388 59.629,18.356 L60.684,18.356 L60.684,19.411 C59.707,19.489 58.887,20.075 58.223,21.169 L56.817,21.169 C56.168,21.466 55.114,21.114 53.653,20.114 C53.660,19.692 53.895,18.989 54.356,18.005 L54.356,17.302 C53.504,17.466 52.957,17.153 52.715,16.364 C52.333,15.177 52.762,15.021 54.004,15.895 C55.660,16.372 56.950,15.669 57.871,13.786 C58.606,13.692 59.309,13.224 59.981,12.380 C60.473,12.614 61.176,12.731 62.090,12.731 L62.442,13.083 C62.449,13.747 62.098,14.333 61.387,14.841 L61.387,15.544 ZM59.278,14.138 L58.575,14.489 C58.606,14.911 58.371,15.145 57.871,15.192 C58.043,15.935 58.395,16.052 58.926,15.544 C59.957,15.161 60.075,14.692 59.278,14.138 ZM54.005,9.392 L53.653,10.095 L52.950,11.149 L52.247,12.204 L51.895,13.259 L51.192,13.610 L51.192,14.313 L50.489,15.017 L49.786,15.368 L49.786,16.071 L49.083,17.477 L48.731,18.884 L48.380,19.235 C49.091,19.610 50.028,19.610 51.192,19.235 L51.192,19.938 L50.489,19.938 C49.848,21.634 48.442,22.103 46.270,21.345 L45.919,20.290 L45.216,20.290 C42.591,22.907 41.302,22.439 41.349,18.884 C40.864,18.782 40.630,19.017 40.645,19.587 C40.280,19.587 40.055,19.441 39.965,19.153 C39.871,19.528 39.708,20.003 39.474,20.583 C38.661,20.685 37.841,21.153 37.013,21.989 L35.958,21.989 C34.700,20.310 33.529,20.310 32.443,21.989 C31.888,21.895 31.419,22.013 31.036,22.341 L30.333,22.341 C30.036,21.739 29.568,21.388 28.927,21.286 L29.279,19.880 L29.279,19.177 C29.880,18.880 30.232,18.411 30.333,17.770 C30.794,17.528 31.146,17.060 31.388,16.364 C32.505,16.146 33.560,15.325 34.552,13.903 C35.068,13.770 35.536,13.419 35.958,12.849 L38.771,13.200 L38.771,12.497 C39.271,12.638 39.739,13.106 40.177,13.903 C39.739,14.192 39.505,14.778 39.474,15.661 C38.271,15.966 37.568,16.903 37.365,18.474 C36.794,18.684 36.560,19.270 36.661,20.231 C38.130,20.060 39.185,19.356 39.826,18.122 C39.979,18.143 40.057,18.273 40.061,18.511 C41.563,18.305 42.697,17.378 43.458,15.720 C44.591,15.517 45.528,14.813 46.270,13.610 C47.177,13.540 47.880,13.071 48.380,12.204 L49.786,12.907 L49.786,12.204 C50.505,11.970 50.973,11.384 51.192,10.446 C52.067,9.923 52.536,9.103 52.599,7.985 L52.950,7.634 L51.895,6.931 C52.380,7.032 52.614,6.798 52.599,6.227 C53.302,6.353 54.005,6.118 54.708,5.524 L55.411,5.524 C55.591,5.860 55.708,6.329 55.763,6.931 L55.059,8.688 L54.005,9.392 ZM36.661,16.013 C36.794,15.419 36.560,14.950 35.958,14.606 C35.474,15.075 34.654,15.427 33.497,15.661 L33.146,16.013 C30.568,21.341 31.740,21.341 36.661,16.013 ZM48.028,14.665 L47.325,14.665 L46.974,15.368 C45.356,15.532 44.419,16.470 44.161,18.181 C43.591,18.392 43.356,18.977 43.458,19.938 C44.958,19.532 46.247,18.360 47.325,16.423 C47.645,16.040 47.880,15.806 48.028,15.720 L48.028,14.665 ZM25.588,14.782 L25.588,15.485 C24.728,15.649 24.259,16.235 24.181,17.243 C23.619,17.704 23.267,18.524 23.127,19.704 C24.541,20.243 25.830,19.774 26.994,18.298 C26.244,21.181 24.369,22.235 21.369,21.462 L20.666,21.110 C20.556,20.126 20.791,19.188 21.369,18.298 C20.603,18.368 20.017,18.837 19.611,19.704 C19.571,19.711 19.534,19.722 19.495,19.730 C19.320,20.200 18.879,20.796 18.170,21.520 L16.764,22.575 L15.358,22.927 L13.248,22.927 C12.647,22.224 12.412,21.169 12.545,19.763 L11.491,20.466 L11.842,19.411 C12.694,19.239 13.279,18.653 13.600,17.653 C14.170,17.630 14.639,17.161 15.006,16.247 C15.592,15.763 15.944,15.177 16.061,14.489 C16.420,14.310 16.654,13.958 16.764,13.434 C18.725,12.013 18.725,10.841 16.764,9.919 C16.217,10.028 15.748,10.380 15.358,10.974 L13.951,11.677 L13.248,11.677 L13.248,10.974 C13.733,11.075 13.967,10.841 13.951,10.270 C14.608,10.192 15.076,9.724 15.358,8.864 L17.116,8.513 L17.467,7.809 L18.170,7.809 L19.576,8.513 L19.576,9.216 C20.381,8.435 21.436,8.083 22.741,8.161 L22.741,9.919 C22.201,10.239 21.850,10.708 21.686,11.325 C20.866,11.708 20.162,12.528 19.576,13.786 C19.061,14.013 18.592,14.481 18.170,15.192 L17.819,15.895 L17.467,16.599 C16.983,16.497 16.748,16.731 16.764,17.302 L16.412,18.005 C16.256,18.294 15.904,18.528 15.358,18.708 L15.358,19.411 C14.905,20.161 14.787,20.981 15.006,21.872 L16.764,21.520 C16.942,21.408 17.143,21.180 17.361,20.864 L17.150,20.759 L17.150,19.704 C17.830,19.735 18.416,19.384 18.908,18.649 C19.588,18.681 20.174,18.329 20.666,17.595 C20.900,17.540 21.135,17.306 21.369,16.892 C21.970,16.899 22.439,16.548 22.775,15.837 L24.181,15.134 L24.885,14.079 L25.939,13.727 L26.994,12.673 C27.314,12.876 27.783,12.876 28.400,12.673 L28.400,15.485 L26.994,16.188 C26.931,15.626 26.463,15.157 25.588,14.782 ZM9.733,17.302 C8.545,18.216 7.959,19.622 7.975,21.520 C8.858,21.520 9.561,21.286 10.084,20.817 L10.787,20.817 L11.139,21.169 C10.654,21.067 10.420,21.302 10.436,21.872 C9.881,21.950 9.412,22.302 9.030,22.927 C6.608,23.372 5.319,22.669 5.162,20.817 C5.670,20.466 6.256,19.645 6.920,18.356 C7.155,18.278 7.389,18.044 7.623,17.653 L8.326,16.950 L8.326,16.247 C8.858,16.192 9.209,15.841 9.381,15.192 L10.436,14.489 C10.405,14.067 10.639,13.833 11.139,13.786 L11.491,13.083 C11.959,13.161 12.194,12.927 12.194,12.380 L12.545,12.380 L12.545,13.083 C12.170,13.247 11.936,13.599 11.842,14.138 C10.905,14.552 10.201,15.606 9.733,17.302 Z" />
</svg>