<svg 
 xmlns="http://www.w3.org/2000/svg"
 xmlns:xlink="http://www.w3.org/1999/xlink"
 width="139px" height="50px" viewBox="0 0 139 50">
<path fill-rule="evenodd"  stroke="rgb(60, 28, 0)" fill="rgb(60, 28, 0)"
 d="M133.565,36.483 L133.565,37.186 C132.839,37.452 132.018,37.334 131.104,36.834 L130.753,37.537 C128.831,37.928 127.659,39.217 127.237,41.405 C126.878,41.584 126.643,41.936 126.534,42.459 L125.128,43.162 L124.425,43.162 L124.073,42.108 L124.776,40.701 L125.128,39.998 C126.362,39.498 127.065,38.327 127.237,36.483 L127.589,36.131 L126.534,36.131 L125.128,35.780 L124.776,35.076 C125.776,35.373 126.948,35.139 128.292,34.373 L130.050,34.373 L130.401,35.780 C131.299,35.561 132.003,34.975 132.511,34.022 L133.565,34.022 C133.526,34.256 133.643,34.491 133.917,34.725 C133.987,35.123 133.870,35.709 133.565,36.483 ZM123.488,36.600 L123.136,36.951 C122.730,36.897 122.378,37.131 122.081,37.655 C121.402,37.444 120.816,37.678 120.324,38.358 C119.808,38.319 119.222,38.553 118.566,39.061 L118.566,40.116 C119.667,40.678 120.722,40.444 121.730,39.412 L122.784,39.412 L122.784,40.467 C121.808,40.545 120.987,41.131 120.324,42.225 L118.917,42.225 C118.269,42.522 117.214,42.170 115.753,41.170 C115.761,40.748 115.995,40.045 116.456,39.061 L116.456,38.358 C115.605,38.522 115.058,38.209 114.816,37.420 C114.433,36.233 114.863,36.077 116.105,36.951 C117.761,37.428 119.050,36.725 119.972,34.842 C120.706,34.748 121.409,34.280 122.081,33.436 C122.574,33.670 123.277,33.787 124.191,33.787 L124.542,34.139 C124.550,34.803 124.198,35.389 123.488,35.897 L123.488,36.600 ZM121.378,35.194 L120.675,35.545 C120.706,35.967 120.472,36.201 119.972,36.248 C120.144,36.991 120.495,37.108 121.027,36.600 C122.058,36.217 122.175,35.748 121.378,35.194 ZM112.883,37.420 L111.828,38.123 C111.758,38.639 111.523,39.225 111.125,39.881 L111.125,40.584 C112.062,40.788 113.351,40.553 114.992,39.881 L114.640,40.936 C113.968,40.850 113.500,41.084 113.234,41.639 C112.695,41.584 112.109,41.819 111.476,42.342 L109.015,42.342 C108.672,41.717 108.554,40.897 108.664,39.881 L109.367,39.881 C109.492,39.194 109.961,38.256 110.773,37.069 L111.476,36.717 L111.476,34.959 L110.070,35.662 L109.719,34.608 L109.367,36.366 L108.312,37.420 L107.961,37.772 C107.578,38.287 107.343,38.991 107.258,39.881 C106.531,40.405 105.945,41.225 105.500,42.342 L105.148,42.694 L103.742,42.342 L103.742,40.233 C104.101,40.053 104.336,39.702 104.445,39.178 C105.515,38.811 106.101,37.873 106.203,36.366 L107.258,35.662 L107.258,34.959 C108.132,34.436 108.601,33.616 108.664,32.498 C109.086,32.217 109.554,31.748 110.070,31.092 L110.422,30.389 L110.773,28.983 L110.773,28.280 C111.265,28.280 111.851,28.045 112.531,27.576 C113.226,27.702 113.578,28.170 113.586,28.983 C113.054,29.147 112.820,29.616 112.883,30.389 C112.523,30.569 112.289,30.920 112.179,31.444 C111.664,31.506 111.312,31.858 111.125,32.498 L110.422,33.201 L110.070,33.905 L110.070,34.608 L110.773,34.608 L110.773,33.553 C111.265,33.514 111.851,33.280 112.531,32.850 L114.289,33.553 L114.640,34.959 C114.281,35.076 113.929,35.545 113.586,36.366 C113.226,36.545 112.992,36.897 112.883,37.420 ZM103.918,30.448 L103.567,31.151 L102.864,32.205 L102.160,33.260 L101.809,34.315 L101.106,34.666 L101.106,35.369 L100.403,36.073 L99.699,36.424 L99.699,37.127 L98.996,38.533 L98.645,39.940 L98.293,40.291 C99.004,40.666 99.942,40.666 101.106,40.291 L101.106,40.994 L100.403,40.994 C99.762,42.690 98.356,43.159 96.184,42.401 L95.832,41.346 L95.129,41.346 C92.504,43.963 91.215,43.495 91.262,39.940 C90.777,39.838 90.543,40.073 90.559,40.643 C90.187,40.643 89.973,40.478 89.887,40.179 C89.794,40.558 89.627,41.045 89.387,41.639 C88.575,41.741 87.754,42.209 86.926,43.045 L85.872,43.045 C84.614,41.366 83.442,41.366 82.356,43.045 C81.801,42.951 81.333,43.069 80.950,43.397 L80.247,43.397 C79.950,42.795 79.481,42.444 78.841,42.342 L79.192,40.936 L79.192,40.233 C79.794,39.936 80.145,39.467 80.247,38.826 C80.708,38.584 81.059,38.116 81.301,37.420 C82.419,37.202 83.473,36.381 84.466,34.959 C84.981,34.827 85.450,34.475 85.872,33.905 L88.684,34.256 L88.684,33.553 C89.184,33.694 89.653,34.162 90.091,34.959 C89.653,35.248 89.419,35.834 89.387,36.717 C88.184,37.022 87.481,37.959 87.278,39.530 C86.708,39.741 86.473,40.326 86.575,41.287 C88.044,41.116 89.098,40.413 89.739,39.178 C89.892,39.199 89.970,39.329 89.975,39.567 C91.476,39.361 92.611,38.434 93.371,36.776 C94.504,36.573 95.442,35.869 96.184,34.666 C97.090,34.596 97.793,34.127 98.293,33.260 L99.699,33.963 L99.699,33.260 C100.418,33.026 100.887,32.440 101.106,31.502 C101.981,30.979 102.449,30.159 102.512,29.041 L102.864,28.690 L101.809,27.987 C102.293,28.088 102.528,27.854 102.512,27.283 C103.215,27.409 103.918,27.174 104.621,26.580 L105.324,26.580 C105.504,26.916 105.621,27.385 105.676,27.987 L104.973,29.744 L103.918,30.448 ZM86.575,37.069 C86.708,36.475 86.473,36.006 85.872,35.662 C85.387,36.131 84.567,36.483 83.411,36.717 L83.059,37.069 C80.481,42.397 81.653,42.397 86.575,37.069 ZM97.942,35.721 L97.239,35.721 L96.887,36.424 C95.270,36.588 94.332,37.526 94.074,39.237 C93.504,39.448 93.270,40.033 93.371,40.994 C94.871,40.588 96.160,39.416 97.239,37.479 C97.559,37.096 97.793,36.862 97.942,36.776 L97.942,35.721 ZM80.505,30.389 C80.146,30.569 79.911,30.920 79.802,31.444 C79.341,31.686 78.989,32.155 78.747,32.850 C78.427,33.233 78.192,33.467 78.044,33.553 L77.693,34.608 C76.927,35.030 76.458,35.850 76.286,37.069 L75.583,37.420 L75.583,38.475 C75.349,38.553 75.114,38.787 74.880,39.178 L74.177,39.881 L74.177,41.287 C74.943,41.217 75.528,40.748 75.935,39.881 C76.818,39.928 77.403,39.459 77.693,38.475 C78.528,39.483 78.294,40.069 76.989,40.233 C76.193,42.311 74.435,43.366 71.716,43.397 L71.364,41.639 L71.013,41.287 C71.200,40.959 71.318,40.491 71.364,39.881 L70.661,39.881 L70.661,40.584 C70.138,40.803 69.669,41.272 69.255,41.991 L67.849,42.342 L67.849,40.584 C68.615,40.459 69.201,39.991 69.607,39.178 C70.708,38.928 71.646,38.225 72.419,37.069 C73.349,36.873 74.052,36.053 74.529,34.608 L74.880,33.905 C75.669,33.772 76.138,33.186 76.286,32.147 L76.989,31.795 L77.341,31.092 L77.693,30.389 L77.693,28.983 C77.833,28.686 78.185,28.452 78.747,28.280 L79.099,27.928 C79.513,27.819 80.216,27.936 81.208,28.280 C81.239,28.881 81.005,29.350 80.505,29.686 L80.505,30.389 ZM70.806,9.448 L70.455,10.151 L69.751,11.205 L69.048,12.260 L68.697,13.315 L67.994,13.666 L67.994,14.369 L67.291,15.073 L66.587,15.424 L66.587,16.127 L65.884,17.533 L65.533,18.940 L65.181,19.291 C65.892,19.666 66.829,19.666 67.994,19.291 L67.994,19.994 L67.291,19.994 C66.650,21.690 65.244,22.159 63.072,21.401 L62.720,20.346 L62.017,20.346 C59.392,22.963 58.103,22.495 58.150,18.940 C57.665,18.838 57.431,19.073 57.447,19.643 C57.075,19.643 56.861,19.478 56.775,19.179 C56.682,19.558 56.515,20.045 56.275,20.639 C55.463,20.741 54.642,21.209 53.814,22.045 L52.760,22.045 C51.502,20.366 50.330,20.366 49.244,22.045 C48.689,21.951 48.221,22.069 47.838,22.397 L47.135,22.397 C46.838,21.795 46.369,21.444 45.729,21.342 L46.080,19.936 L46.080,19.233 C46.682,18.936 47.033,18.467 47.135,17.826 C47.596,17.584 47.947,17.116 48.189,16.420 C49.307,16.202 50.361,15.381 51.354,13.959 C51.869,13.827 52.338,13.475 52.760,12.905 L55.572,13.256 L55.572,12.553 C56.072,12.694 56.541,13.162 56.979,13.959 C56.541,14.248 56.307,14.834 56.275,15.717 C55.072,16.022 54.369,16.959 54.166,18.530 C53.596,18.741 53.361,19.326 53.463,20.287 C54.932,20.116 55.986,19.413 56.627,18.178 C56.780,18.199 56.858,18.329 56.863,18.567 C58.364,18.361 59.498,17.434 60.259,15.776 C61.392,15.573 62.329,14.869 63.072,13.666 C63.978,13.596 64.681,13.127 65.181,12.260 L66.587,12.963 L66.587,12.260 C67.306,12.026 67.775,11.440 67.994,10.502 C68.869,9.979 69.337,9.159 69.400,8.041 L69.751,7.690 L68.697,6.987 C69.181,7.088 69.415,6.854 69.400,6.283 C70.103,6.409 70.806,6.174 71.509,5.580 L72.212,5.580 C72.392,5.916 72.509,6.385 72.564,6.987 L71.861,8.744 L70.806,9.448 ZM53.463,16.069 C53.596,15.475 53.361,15.006 52.760,14.662 C52.275,15.131 51.455,15.483 50.299,15.717 L49.947,16.069 C47.369,21.397 48.541,21.397 53.463,16.069 ZM64.830,14.721 L64.126,14.721 L63.775,15.424 C62.158,15.588 61.220,16.526 60.962,18.237 C60.392,18.448 60.158,19.033 60.259,19.994 C61.759,19.588 63.048,18.416 64.126,16.479 C64.447,16.096 64.681,15.862 64.830,15.776 L64.830,14.721 ZM47.393,9.389 C47.034,9.569 46.799,9.920 46.690,10.444 C46.229,10.686 45.877,11.155 45.635,11.850 C45.315,12.233 45.080,12.467 44.932,12.553 L44.581,13.608 C43.815,14.030 43.346,14.850 43.174,16.069 L42.471,16.420 L42.471,17.475 C42.237,17.553 42.002,17.787 41.768,18.178 L41.065,18.881 L41.065,20.287 C41.830,20.217 42.416,19.748 42.823,18.881 C43.705,18.928 44.291,18.459 44.581,17.475 C45.416,18.483 45.182,19.069 43.877,19.233 C43.081,21.311 41.323,22.366 38.604,22.397 L38.252,20.639 L37.901,20.287 C38.088,19.959 38.206,19.491 38.252,18.881 L37.549,18.881 L37.549,19.584 C37.026,19.803 36.557,20.272 36.143,20.991 L34.737,21.342 L34.737,20.794 C34.132,21.011 33.523,21.426 32.909,22.045 L31.854,22.045 C30.597,20.366 29.425,20.366 28.339,22.045 C27.784,21.951 27.315,22.069 26.933,22.397 L26.229,22.397 C25.932,21.795 25.464,21.444 24.823,21.342 L25.175,19.936 L25.175,19.233 C25.776,18.936 26.128,18.467 26.229,17.826 C26.690,17.584 27.042,17.116 27.284,16.420 C28.401,16.202 29.456,15.381 30.448,13.959 C30.964,13.827 31.433,13.475 31.854,12.905 L34.667,13.256 L34.667,12.553 C35.167,12.694 35.636,13.162 36.073,13.959 C35.636,14.248 35.401,14.834 35.370,15.717 C34.167,16.022 33.464,16.959 33.261,18.530 C32.690,18.741 32.456,19.326 32.558,20.287 C34.026,20.116 35.081,19.413 35.722,18.178 C35.946,18.208 36.004,18.480 35.910,18.975 C36.131,18.760 36.332,18.504 36.495,18.178 C37.596,17.928 38.534,17.225 39.307,16.069 C40.237,15.873 40.940,15.053 41.416,13.608 L41.768,12.905 C42.557,12.772 43.026,12.186 43.174,11.147 L43.877,10.795 L44.229,10.092 L44.581,9.389 L44.581,7.983 C44.721,7.686 45.073,7.452 45.635,7.280 L45.987,6.928 C46.401,6.819 47.104,6.936 48.096,7.280 C48.127,7.881 47.893,8.350 47.393,8.686 L47.393,9.389 ZM32.558,16.069 C32.690,15.475 32.456,15.006 31.854,14.662 C31.370,15.131 30.550,15.483 29.394,15.717 L29.042,16.069 C26.464,21.397 27.636,21.397 32.558,16.069 ZM24.050,14.897 L22.996,14.897 L23.347,17.709 L22.644,19.116 L22.644,19.819 L21.238,20.522 C20.769,20.913 20.300,21.381 19.831,21.928 L19.128,21.928 L18.777,22.631 C18.121,22.475 17.417,22.592 16.667,22.983 L14.206,22.983 L13.152,23.334 L12.449,22.983 L11.746,23.334 L10.691,23.334 L9.636,23.686 C8.761,23.311 7.589,23.311 6.121,23.686 C6.066,23.451 5.831,23.217 5.417,22.983 L5.769,21.928 C6.003,21.967 6.238,21.850 6.472,21.576 C6.706,21.748 6.941,21.748 7.175,21.576 L8.933,21.928 L9.636,21.576 L9.636,20.873 C10.355,20.639 10.824,20.053 11.042,19.116 C11.503,18.873 11.855,18.405 12.097,17.709 L13.152,17.006 C13.316,16.467 13.667,15.881 14.206,15.248 L14.558,13.491 C15.167,13.194 15.636,12.959 15.964,12.787 L15.964,11.733 C15.222,11.928 14.167,11.694 12.800,11.030 L13.503,9.623 L16.667,9.623 L17.019,9.272 C17.331,9.467 17.800,9.584 18.425,9.623 L19.128,9.272 L19.831,9.623 L20.535,9.272 L21.589,9.272 L22.292,8.920 L23.347,8.920 C23.581,8.959 23.816,8.842 24.050,8.569 L25.808,8.920 L26.160,10.326 L26.160,12.787 C25.925,12.850 25.691,13.084 25.456,13.491 C24.784,13.584 24.316,14.053 24.050,14.897 ZM16.316,16.303 C16.277,16.733 15.925,17.084 15.261,17.358 L14.558,18.412 C14.394,18.951 14.042,19.537 13.503,20.170 L13.152,20.873 L12.800,21.576 C16.058,22.162 18.050,21.459 18.777,19.467 L18.777,18.764 L19.480,18.764 L19.480,17.709 C20.831,16.405 19.777,15.936 16.316,16.303 ZM22.996,10.678 C22.246,10.881 21.425,10.881 20.535,10.678 C19.964,10.889 19.613,11.358 19.480,12.084 C18.784,12.498 18.316,13.202 18.074,14.194 L17.722,14.545 C19.136,14.936 20.308,14.467 21.238,13.139 C22.855,13.178 23.441,12.358 22.996,10.678 ZM50.529,39.705 C51.318,39.573 51.787,38.987 51.936,37.948 L52.639,37.596 L53.342,37.244 L53.342,36.541 C53.576,36.487 53.811,36.252 54.045,35.838 L54.748,35.487 L54.748,34.783 L55.803,34.080 L56.154,33.377 L57.209,32.674 L57.561,31.619 C58.295,31.526 58.998,31.057 59.670,30.213 C60.342,30.299 60.811,30.065 61.076,29.510 C62.108,29.565 63.045,29.916 63.889,30.565 C63.467,31.057 63.233,31.877 63.186,33.026 C61.592,34.198 60.654,33.963 60.373,32.323 L59.319,32.323 C58.818,32.510 58.350,32.979 57.912,33.729 C56.764,34.307 55.944,35.362 55.451,36.893 C54.990,37.135 54.639,37.604 54.397,38.299 C53.678,38.573 53.326,39.159 53.342,40.057 L52.639,40.408 L52.287,41.112 L52.639,42.869 C54.522,43.284 56.162,42.698 57.561,41.112 C58.194,40.948 58.545,41.182 58.615,41.815 C58.029,41.948 57.678,42.299 57.561,42.869 C56.662,43.033 55.959,43.502 55.451,44.276 C51.295,45.260 49.420,44.205 49.826,41.112 C50.358,40.948 50.592,40.479 50.529,39.705 ZM60.970,36.951 C62.627,37.428 63.916,36.725 64.838,34.842 C65.572,34.748 66.275,34.280 66.947,33.436 C67.439,33.670 68.142,33.787 69.056,33.787 L69.408,34.139 C69.416,34.803 69.064,35.389 68.353,35.897 L68.353,36.600 L68.002,36.951 C67.595,36.897 67.244,37.131 66.947,37.655 C66.267,37.444 65.681,37.678 65.189,38.358 C64.674,38.319 64.088,38.553 63.431,39.061 L63.431,40.116 C64.533,40.678 65.588,40.444 66.595,39.412 L67.650,39.412 L67.650,40.467 C66.673,40.545 65.853,41.131 65.189,42.225 L63.783,42.225 C63.134,42.522 62.080,42.170 60.619,41.170 C60.627,40.748 60.861,40.045 61.322,39.061 L61.322,38.358 C60.470,38.522 59.924,38.209 59.681,37.420 C59.299,36.233 59.728,36.077 60.970,36.951 ZM65.892,36.600 C66.924,36.217 67.041,35.748 66.244,35.194 L65.541,35.545 C65.572,35.967 65.337,36.201 64.838,36.248 C65.009,36.991 65.361,37.108 65.892,36.600 Z"/>
</svg>