<svg xmlns="http://www.w3.org/2000/svg" xmlns:xlink="http://www.w3.org/1999/xlink" width="79px" height="30px"
  viewBox="0 0 79 30">
  <path fill-rule="evenodd" stroke="rgb(60, 28, 0)" fill="rgb(60, 28, 0)"
    d="M73.770,14.457 C73.332,14.747 73.098,15.333 73.066,16.215 C71.863,16.520 71.160,17.457 70.957,19.028 C70.387,19.239 70.152,19.825 70.254,20.786 C71.723,20.614 72.777,19.911 73.418,18.676 C73.824,18.731 73.707,19.551 73.066,21.137 C72.254,21.239 71.434,21.708 70.606,22.543 L69.551,22.543 C68.293,20.864 67.121,20.864 66.035,22.543 C65.480,22.450 65.012,22.567 64.629,22.895 L63.926,22.895 C63.629,22.293 63.160,21.942 62.520,21.840 L62.871,20.434 L62.871,19.731 C63.473,19.434 63.824,18.965 63.926,18.325 C64.387,18.083 64.738,17.614 64.981,16.918 C66.098,16.700 67.152,15.879 68.145,14.457 C68.660,14.325 69.129,13.973 69.551,13.403 L72.363,13.754 L72.363,13.051 C72.863,13.192 73.332,13.661 73.770,14.457 ZM69.551,15.161 C69.066,15.629 68.246,15.981 67.090,16.215 L66.738,16.567 C64.160,21.895 65.332,21.895 70.254,16.567 C70.387,15.973 70.152,15.504 69.551,15.161 ZM61.348,17.047 L59.520,18.348 C58.856,18.676 57.989,19.020 56.919,19.379 L56.274,20.364 C57.032,20.262 57.899,20.067 58.876,19.778 L59.661,19.778 L61.090,18.606 C61.856,18.294 62.247,18.422 62.262,18.993 L61.219,20.235 L61.219,22.508 C60.954,22.461 60.692,22.590 60.434,22.895 C58.528,22.028 56.579,22.028 54.586,22.895 C54.516,22.637 54.254,22.375 53.801,22.110 C53.786,21.313 54.176,20.536 54.973,19.778 C54.973,19.332 55.711,18.856 57.188,18.348 C58.836,17.481 60.266,16.375 61.477,15.032 C60.125,14.188 58.719,14.481 57.258,15.911 C56.946,15.731 56.688,15.340 56.485,14.739 L56.836,12.653 L57.223,12.266 L58.395,12.266 C59.442,12.852 60.598,12.883 61.864,12.360 L63.422,12.360 C63.493,12.625 63.754,12.887 64.208,13.145 L64.208,13.918 C63.231,14.497 62.536,15.407 62.122,16.649 L61.348,17.047 ZM52.337,6.723 L53.392,5.668 C53.814,5.692 54.282,6.161 54.798,7.075 C53.673,9.239 52.853,9.122 52.337,6.723 ZM51.282,20.082 L51.282,20.786 C51.048,20.848 50.814,21.083 50.579,21.489 C49.977,21.481 49.509,21.833 49.173,22.543 C47.110,22.676 46.056,21.739 46.009,19.731 C46.595,19.247 46.946,18.661 47.064,17.973 C48.220,17.629 48.688,16.692 48.470,15.161 L47.767,15.161 L48.118,14.457 L48.821,14.106 C49.509,14.278 50.212,14.043 50.931,13.403 C51.274,14.028 51.392,14.848 51.282,15.864 C47.571,20.012 47.571,21.184 51.282,19.379 C51.532,19.012 51.995,18.971 52.671,19.256 C53.347,19.542 52.884,19.817 51.282,20.082 ZM47.673,9.887 C47.314,10.067 47.080,10.419 46.970,10.942 C46.509,11.184 46.158,11.653 45.916,12.348 C45.595,12.731 45.361,12.965 45.212,13.051 L44.861,14.106 C44.095,14.528 43.626,15.348 43.455,16.567 L42.751,16.918 L42.751,17.973 C42.517,18.051 42.283,18.286 42.048,18.676 L41.345,19.379 L41.345,20.786 C42.111,20.715 42.697,20.247 43.103,19.379 C43.986,19.426 44.572,18.957 44.861,17.973 C45.697,18.981 45.462,19.567 44.158,19.731 C43.361,21.809 41.603,22.864 38.884,22.895 L38.533,21.137 L38.181,20.786 C38.369,20.457 38.486,19.989 38.533,19.379 L37.830,19.379 L37.830,20.082 C37.306,20.301 36.837,20.770 36.423,21.489 L35.017,21.840 L35.017,21.292 C34.412,21.509 33.803,21.924 33.189,22.543 L32.135,22.543 C30.877,20.864 29.705,20.864 28.619,22.543 C28.064,22.450 27.596,22.567 27.213,22.895 L26.510,22.895 C26.213,22.293 25.744,21.942 25.104,21.840 L25.455,20.434 L25.455,19.731 C26.057,19.434 26.408,18.965 26.510,18.325 C26.971,18.083 27.322,17.614 27.564,16.918 C28.682,16.700 29.736,15.879 30.729,14.457 C31.244,14.325 31.713,13.973 32.135,13.403 L34.947,13.754 L34.947,13.051 C35.447,13.192 35.916,13.661 36.354,14.457 C35.916,14.747 35.682,15.333 35.650,16.215 C34.447,16.520 33.744,17.457 33.541,19.028 C32.971,19.239 32.736,19.825 32.838,20.786 C34.307,20.614 35.361,19.911 36.002,18.676 C36.226,18.706 36.285,18.978 36.191,19.474 C36.412,19.258 36.612,19.003 36.775,18.676 C37.876,18.426 38.814,17.723 39.587,16.567 C40.517,16.372 41.220,15.551 41.697,14.106 L42.048,13.403 C42.837,13.270 43.306,12.684 43.455,11.645 L44.158,11.293 L44.509,10.590 L44.861,9.887 L44.861,8.481 C45.001,8.184 45.353,7.950 45.916,7.778 L46.267,7.426 C46.681,7.317 47.384,7.434 48.376,7.778 C48.408,8.379 48.173,8.848 47.673,9.184 L47.673,9.887 ZM32.838,16.567 C32.971,15.973 32.736,15.504 32.135,15.161 C31.650,15.629 30.830,15.981 29.674,16.215 L29.322,16.567 C26.744,21.895 27.916,21.895 32.838,16.567 ZM24.331,15.395 L23.276,15.395 L23.627,18.207 L22.924,19.614 L22.924,20.317 L21.518,21.020 C21.049,21.411 20.581,21.879 20.112,22.426 L19.409,22.426 L19.057,23.129 C18.401,22.973 17.698,23.090 16.948,23.481 L14.487,23.481 L13.432,23.832 L12.729,23.481 L12.026,23.832 L10.971,23.832 L9.916,24.184 C9.041,23.809 7.870,23.809 6.401,24.184 C6.346,23.950 6.112,23.715 5.698,23.481 L6.049,22.426 C6.284,22.465 6.518,22.348 6.752,22.075 C6.987,22.247 7.221,22.247 7.456,22.075 L9.213,22.426 L9.916,22.075 L9.916,21.372 C10.635,21.137 11.104,20.551 11.323,19.614 C11.784,19.372 12.135,18.903 12.377,18.207 L13.432,17.504 C13.596,16.965 13.948,16.379 14.487,15.747 L14.838,13.989 C15.448,13.692 15.916,13.458 16.245,13.286 L16.245,12.231 C15.502,12.426 14.448,12.192 13.081,11.528 L13.784,10.122 L16.948,10.122 L17.299,9.770 C17.612,9.965 18.080,10.083 18.706,10.122 L19.409,9.770 L20.112,10.122 L20.815,9.770 L21.870,9.770 L22.573,9.418 L23.627,9.418 C23.862,9.458 24.096,9.340 24.331,9.067 L26.088,9.418 L26.440,10.825 L26.440,13.286 C26.206,13.348 25.971,13.583 25.737,13.989 C25.065,14.082 24.596,14.551 24.331,15.395 ZM16.596,16.801 C16.557,17.231 16.205,17.583 15.541,17.856 L14.838,18.911 C14.674,19.450 14.323,20.036 13.784,20.668 L13.432,21.372 L13.081,22.075 C16.338,22.661 18.331,21.957 19.057,19.965 L19.057,19.262 L19.760,19.262 L19.760,18.207 C21.112,16.903 20.057,16.434 16.596,16.801 ZM23.276,11.176 C22.526,11.379 21.706,11.379 20.815,11.176 C20.245,11.387 19.893,11.856 19.760,12.582 C19.065,12.997 18.596,13.700 18.354,14.692 L18.002,15.043 C19.416,15.434 20.588,14.965 21.518,13.637 C23.135,13.676 23.721,12.856 23.276,11.176 Z" />
</svg>