<svg 
 xmlns="http://www.w3.org/2000/svg"
 xmlns:xlink="http://www.w3.org/1999/xlink"
 width="67px" height="29px" viewBox="0 0 67 29">
<path fill-rule="evenodd" stroke="rgb(60, 28, 0)" fill="rgb(60, 28, 0)"
 d="M59.689,13.962 C59.400,13.736 58.931,13.736 58.283,13.962 L57.931,15.368 C56.767,15.782 55.947,16.720 55.470,18.181 L54.416,19.235 L54.416,19.939 L53.361,20.290 L53.361,20.993 C53.072,21.689 52.603,21.923 51.955,21.696 C50.619,21.915 49.799,21.564 49.494,20.642 L48.791,20.642 C48.720,20.243 48.838,19.657 49.142,18.884 C49.299,18.181 49.416,17.712 49.494,17.478 C50.213,17.259 50.799,16.673 51.252,15.720 L51.603,15.368 C52.127,15.150 52.595,14.681 53.010,13.962 C53.494,14.064 53.728,13.829 53.713,13.259 C53.947,13.298 54.181,13.181 54.416,12.907 L55.470,12.556 L56.877,12.556 L57.228,12.204 C57.728,12.439 58.431,12.556 59.338,12.556 L61.095,12.556 L61.095,13.610 C60.541,13.517 60.072,13.634 59.689,13.962 ZM54.416,14.314 C54.119,14.501 53.767,14.970 53.361,15.720 L53.010,16.071 C51.869,16.431 51.400,17.368 51.603,18.884 C51.470,19.868 51.939,20.103 53.010,19.587 L53.713,18.181 L54.767,17.478 L55.119,17.126 C55.799,15.423 55.564,14.486 54.416,14.314 ZM47.373,15.439 L47.022,15.790 C46.615,15.736 46.264,15.970 45.967,16.493 C45.287,16.282 44.701,16.517 44.209,17.196 C43.694,17.157 43.108,17.392 42.451,17.900 L42.451,18.954 C43.553,19.517 44.608,19.282 45.615,18.251 L46.670,18.251 L46.670,19.306 C45.693,19.384 44.873,19.970 44.209,21.064 L42.803,21.064 C42.154,21.361 41.100,21.009 39.639,20.009 C39.647,19.587 39.881,18.884 40.342,17.900 L40.342,17.196 C39.490,17.360 38.944,17.048 38.701,16.259 C38.637,16.060 38.605,15.901 38.586,15.760 L37.940,16.083 C37.878,15.521 37.409,15.052 36.534,14.677 L36.534,15.380 C35.674,15.544 35.206,16.130 35.128,17.138 C34.565,17.599 34.214,18.419 34.073,19.599 C35.487,20.138 36.776,19.669 37.940,18.192 C37.190,21.075 35.315,22.130 32.315,21.357 L31.612,21.005 C31.503,20.021 31.737,19.083 32.315,18.192 C31.549,18.263 30.963,18.732 30.557,19.599 C29.792,19.724 29.206,20.193 28.800,21.005 L28.096,20.653 L28.096,20.301 C27.960,20.421 27.823,20.593 27.687,20.829 C27.085,20.822 26.616,21.173 26.280,21.884 C24.218,22.017 23.163,21.079 23.116,19.071 C23.702,18.587 24.054,18.001 24.171,17.314 C25.327,16.970 25.796,16.032 25.577,14.501 L24.874,14.501 L25.226,13.798 L25.929,13.446 C26.616,13.618 27.319,13.384 28.038,12.743 C28.382,13.368 28.499,14.189 28.390,15.204 C24.679,19.353 24.679,20.525 28.390,18.720 C28.640,18.353 29.103,18.312 29.778,18.597 C29.791,18.602 29.788,18.607 29.799,18.612 C29.817,18.587 29.837,18.570 29.854,18.544 C30.534,18.575 31.120,18.224 31.612,17.489 C31.846,17.435 32.081,17.200 32.315,16.786 C32.917,16.794 33.385,16.443 33.721,15.732 L35.128,15.028 L35.831,13.974 L36.885,13.622 L37.940,12.567 C38.260,12.771 38.729,12.771 39.346,12.567 L39.346,15.380 L39.329,15.389 C39.517,15.481 39.732,15.608 39.990,15.790 C41.647,16.267 42.936,15.564 43.858,13.681 C44.592,13.587 45.295,13.118 45.967,12.275 C46.459,12.509 47.162,12.626 48.076,12.626 L48.428,12.978 C48.436,13.642 48.084,14.228 47.373,14.735 L47.373,15.439 ZM28.390,19.423 L28.390,19.570 C28.664,19.535 28.922,19.436 29.162,19.266 C28.936,19.318 28.703,19.371 28.390,19.423 ZM45.264,14.032 L44.561,14.384 C44.592,14.806 44.358,15.040 43.858,15.087 C44.029,15.829 44.381,15.947 44.912,15.439 C45.944,15.056 46.061,14.587 45.264,14.032 ZM29.445,6.064 L30.499,5.009 C30.921,5.032 31.390,5.501 31.905,6.415 C30.780,8.579 29.960,8.462 29.445,6.064 ZM20.632,10.927 L19.929,12.685 C19.445,12.583 19.210,12.818 19.226,13.388 L18.172,13.739 L17.820,14.442 L17.468,15.497 L16.414,16.200 L16.414,16.903 C15.812,17.310 15.460,17.896 15.359,18.661 C14.820,18.982 14.468,19.450 14.304,20.067 C13.711,20.091 13.242,20.442 12.898,21.122 C14.820,21.732 15.523,21.263 15.007,19.716 C15.242,19.755 15.476,19.638 15.711,19.364 C16.976,20.286 17.914,19.935 18.523,18.310 C19.203,18.325 19.672,17.857 19.929,16.903 L21.336,16.903 L21.336,17.958 C20.976,18.138 20.742,18.489 20.632,19.013 C20.398,19.091 20.164,19.325 19.929,19.716 C19.609,20.099 19.375,20.333 19.226,20.419 L19.226,21.825 C18.742,21.724 18.507,21.958 18.523,22.528 C17.921,22.521 17.453,22.872 17.117,23.583 C16.195,23.849 15.375,23.614 14.656,22.880 C13.914,23.114 13.093,23.114 12.195,22.880 C11.570,23.169 10.632,23.286 9.382,23.232 C9.148,23.193 8.914,23.310 8.679,23.583 L7.273,23.583 L6.570,23.232 C5.789,23.154 5.691,22.646 6.277,21.708 L8.328,21.825 C9.265,21.575 9.851,20.872 10.086,19.716 C10.718,19.466 11.187,18.880 11.492,17.958 L12.547,16.903 C13.218,16.810 13.687,16.341 13.953,15.497 C14.554,15.091 14.906,14.505 15.007,13.739 C16.250,13.169 16.836,12.232 16.765,10.927 C13.804,11.482 13.101,10.896 14.656,9.169 L20.632,9.169 C20.867,9.208 21.101,9.091 21.336,8.817 L23.093,8.817 L24.148,9.521 L23.797,10.927 L20.632,10.927 Z"/>
</svg>