<svg xmlns="http://www.w3.org/2000/svg" xmlns:xlink="http://www.w3.org/1999/xlink" width="67px" height="28px"
  viewBox="0 0 67 28">
  <path fill-rule="evenodd" stroke="rgb(162, 156, 145)" fill="transparent" stroke-width="4"
    d="M61.629,12.957 C61.192,13.247 60.957,13.833 60.926,14.715 C59.723,15.020 59.020,15.957 58.817,17.528 C58.247,17.739 58.012,18.325 58.114,19.286 C59.583,19.114 60.637,18.411 61.278,17.176 C61.684,17.231 61.567,18.051 60.926,19.637 C60.114,19.739 59.293,20.208 58.465,21.043 L57.411,21.043 C56.153,19.364 54.981,19.364 53.895,21.043 C53.340,20.950 52.872,21.067 52.489,21.395 L51.786,21.395 C51.489,20.793 51.020,20.442 50.379,20.340 L50.731,18.934 L50.731,18.231 C51.333,17.934 51.684,17.465 51.786,16.825 C52.247,16.583 52.598,16.114 52.840,15.418 C53.958,15.200 55.012,14.379 56.004,12.957 C56.520,12.825 56.989,12.473 57.411,11.903 L60.223,12.254 L60.223,11.551 C60.723,11.692 61.192,12.161 61.629,12.957 ZM57.411,13.661 C56.926,14.129 56.106,14.481 54.950,14.715 L54.598,15.067 C52.020,20.395 53.192,20.395 58.114,15.067 C58.247,14.473 58.012,14.004 57.411,13.661 ZM52.044,8.387 C51.685,8.567 51.450,8.919 51.341,9.442 C50.880,9.684 50.528,10.153 50.286,10.848 C49.966,11.231 49.731,11.465 49.583,11.551 L49.231,12.606 C48.466,13.028 47.997,13.848 47.825,15.067 L47.122,15.418 L47.122,16.473 C46.888,16.551 46.653,16.786 46.419,17.176 L45.716,17.879 L45.716,19.286 C46.481,19.215 47.067,18.747 47.474,17.879 C48.356,17.926 48.942,17.457 49.231,16.473 C50.067,17.481 49.833,18.067 48.528,18.231 C47.731,20.309 45.974,21.364 43.255,21.395 L42.903,19.637 L42.552,19.286 C42.739,18.957 42.856,18.489 42.903,17.879 L42.200,17.879 L42.200,18.582 C41.677,18.801 41.208,19.270 40.794,19.989 L39.388,20.340 L39.388,18.582 C40.153,18.458 40.739,17.989 41.146,17.176 C42.247,16.926 43.185,16.223 43.958,15.067 C44.888,14.872 45.591,14.051 46.067,12.606 L46.419,11.903 C47.208,11.770 47.677,11.184 47.825,10.145 L48.528,9.793 L48.880,9.090 L49.231,8.387 L49.231,6.981 C49.372,6.684 49.724,6.450 50.286,6.278 L50.638,5.926 C51.052,5.817 51.755,5.934 52.747,6.278 C52.778,6.879 52.544,7.348 52.044,7.684 L52.044,8.387 ZM40.103,15.184 C39.376,15.450 38.556,15.333 37.642,14.832 L37.291,15.536 C35.369,15.926 34.197,17.215 33.775,19.403 C33.415,19.583 33.181,19.934 33.072,20.457 L31.666,21.161 L30.962,21.161 L30.611,20.106 L31.314,18.700 L31.666,17.997 C32.900,17.497 33.603,16.325 33.775,14.481 L34.126,14.129 L33.072,14.129 L31.666,13.778 L31.314,13.075 C32.314,13.372 33.486,13.137 34.830,12.372 L36.587,12.372 L36.939,13.778 C37.837,13.559 38.540,12.973 39.048,12.020 L40.103,12.020 C40.064,12.254 40.181,12.489 40.455,12.723 C40.525,13.122 40.408,13.707 40.103,14.481 L40.103,15.184 ZM30.025,14.598 L29.674,14.950 C29.268,14.895 28.916,15.129 28.619,15.653 C27.939,15.442 27.354,15.676 26.861,16.356 C26.346,16.317 25.760,16.551 25.104,17.059 L25.104,18.114 C26.205,18.676 27.260,18.442 28.268,17.411 L29.322,17.411 L29.322,18.465 C28.346,18.543 27.525,19.129 26.861,20.223 L25.455,20.223 C24.807,20.520 23.752,20.169 22.291,19.168 C22.299,18.747 22.533,18.043 22.994,17.059 L22.994,16.356 C22.143,16.520 21.596,16.208 21.354,15.418 C20.971,14.231 21.400,14.075 22.643,14.950 C24.299,15.426 25.588,14.723 26.510,12.840 C27.244,12.747 27.947,12.278 28.619,11.434 C29.111,11.668 29.814,11.786 30.729,11.786 L31.080,12.137 C31.088,12.801 30.736,13.387 30.025,13.895 L30.025,14.598 ZM27.916,13.192 L27.213,13.543 C27.244,13.965 27.010,14.200 26.510,14.247 C26.682,14.989 27.033,15.106 27.564,14.598 C28.596,14.215 28.713,13.747 27.916,13.192 ZM27.424,10.321 C26.588,10.860 26.002,11.485 25.666,12.196 C25.151,12.282 24.565,12.633 23.909,13.250 C23.119,13.118 22.182,13.352 21.096,13.954 L18.284,13.954 L17.581,14.305 L16.526,14.305 C16.424,14.875 16.073,15.461 15.471,16.063 L15.120,16.766 C14.799,17.149 14.565,17.383 14.416,17.469 C14.252,18.008 13.901,18.594 13.362,19.227 L13.010,19.930 C13.659,20.336 14.596,20.571 15.823,20.633 L15.823,21.688 L9.495,21.688 L8.791,22.391 L8.088,22.039 C7.854,22.000 7.620,22.118 7.385,22.391 L5.979,22.391 C5.791,22.063 5.674,21.594 5.627,20.985 C6.463,20.610 7.635,20.493 9.143,20.633 C9.448,20.469 9.799,20.000 10.198,19.227 C10.557,18.969 10.909,18.383 11.252,17.469 C11.830,16.977 12.182,16.391 12.307,15.711 L13.010,14.305 L13.713,13.954 L13.713,13.250 L14.416,12.899 L14.416,12.196 L15.471,11.141 C15.916,10.735 16.268,10.032 16.526,9.032 L17.229,9.032 C17.737,7.524 15.979,7.055 11.956,7.625 C11.768,7.297 11.651,6.829 11.604,6.219 L13.010,5.868 C13.557,6.227 14.143,6.227 14.768,5.868 L15.471,5.868 L16.526,6.219 L17.229,5.868 L19.690,5.868 C20.041,6.094 20.393,6.094 20.745,5.868 L22.854,5.868 C23.409,5.961 23.877,5.844 24.260,5.516 L25.666,5.868 C25.909,6.329 26.377,6.680 27.073,6.922 L27.483,8.446 L27.073,9.383 L27.424,10.321 ZM22.854,7.274 L21.448,7.274 C20.760,7.680 20.291,8.383 20.041,9.383 C19.674,9.532 19.440,9.883 19.338,10.438 L18.635,10.789 L18.635,11.493 L17.932,11.844 L17.932,12.196 C21.526,12.985 23.635,11.461 24.260,7.625 C23.932,7.625 23.463,7.508 22.854,7.274 Z" />
  <path fill-rule="evenodd" stroke="rgb(60, 28, 0)" fill="rgb(60, 28, 0)"
    d="M61.629,12.957 C61.192,13.247 60.957,13.833 60.926,14.715 C59.723,15.020 59.020,15.957 58.817,17.528 C58.247,17.739 58.012,18.325 58.114,19.286 C59.583,19.114 60.637,18.411 61.278,17.176 C61.684,17.231 61.567,18.051 60.926,19.637 C60.114,19.739 59.293,20.208 58.465,21.043 L57.411,21.043 C56.153,19.364 54.981,19.364 53.895,21.043 C53.340,20.950 52.872,21.067 52.489,21.395 L51.786,21.395 C51.489,20.793 51.020,20.442 50.379,20.340 L50.731,18.934 L50.731,18.231 C51.333,17.934 51.684,17.465 51.786,16.825 C52.247,16.583 52.598,16.114 52.840,15.418 C53.958,15.200 55.012,14.379 56.004,12.957 C56.520,12.825 56.989,12.473 57.411,11.903 L60.223,12.254 L60.223,11.551 C60.723,11.692 61.192,12.161 61.629,12.957 ZM57.411,13.661 C56.926,14.129 56.106,14.481 54.950,14.715 L54.598,15.067 C52.020,20.395 53.192,20.395 58.114,15.067 C58.247,14.473 58.012,14.004 57.411,13.661 ZM52.044,8.387 C51.685,8.567 51.450,8.919 51.341,9.442 C50.880,9.684 50.528,10.153 50.286,10.848 C49.966,11.231 49.731,11.465 49.583,11.551 L49.231,12.606 C48.466,13.028 47.997,13.848 47.825,15.067 L47.122,15.418 L47.122,16.473 C46.888,16.551 46.653,16.786 46.419,17.176 L45.716,17.879 L45.716,19.286 C46.481,19.215 47.067,18.747 47.474,17.879 C48.356,17.926 48.942,17.457 49.231,16.473 C50.067,17.481 49.833,18.067 48.528,18.231 C47.731,20.309 45.974,21.364 43.255,21.395 L42.903,19.637 L42.552,19.286 C42.739,18.957 42.856,18.489 42.903,17.879 L42.200,17.879 L42.200,18.582 C41.677,18.801 41.208,19.270 40.794,19.989 L39.388,20.340 L39.388,18.582 C40.153,18.458 40.739,17.989 41.146,17.176 C42.247,16.926 43.185,16.223 43.958,15.067 C44.888,14.872 45.591,14.051 46.067,12.606 L46.419,11.903 C47.208,11.770 47.677,11.184 47.825,10.145 L48.528,9.793 L48.880,9.090 L49.231,8.387 L49.231,6.981 C49.372,6.684 49.724,6.450 50.286,6.278 L50.638,5.926 C51.052,5.817 51.755,5.934 52.747,6.278 C52.778,6.879 52.544,7.348 52.044,7.684 L52.044,8.387 ZM40.103,15.184 C39.376,15.450 38.556,15.333 37.642,14.832 L37.291,15.536 C35.369,15.926 34.197,17.215 33.775,19.403 C33.415,19.583 33.181,19.934 33.072,20.457 L31.666,21.161 L30.962,21.161 L30.611,20.106 L31.314,18.700 L31.666,17.997 C32.900,17.497 33.603,16.325 33.775,14.481 L34.126,14.129 L33.072,14.129 L31.666,13.778 L31.314,13.075 C32.314,13.372 33.486,13.137 34.830,12.372 L36.587,12.372 L36.939,13.778 C37.837,13.559 38.540,12.973 39.048,12.020 L40.103,12.020 C40.064,12.254 40.181,12.489 40.455,12.723 C40.525,13.122 40.408,13.707 40.103,14.481 L40.103,15.184 ZM30.025,14.598 L29.674,14.950 C29.268,14.895 28.916,15.129 28.619,15.653 C27.939,15.442 27.354,15.676 26.861,16.356 C26.346,16.317 25.760,16.551 25.104,17.059 L25.104,18.114 C26.205,18.676 27.260,18.442 28.268,17.411 L29.322,17.411 L29.322,18.465 C28.346,18.543 27.525,19.129 26.861,20.223 L25.455,20.223 C24.807,20.520 23.752,20.169 22.291,19.168 C22.299,18.747 22.533,18.043 22.994,17.059 L22.994,16.356 C22.143,16.520 21.596,16.208 21.354,15.418 C20.971,14.231 21.400,14.075 22.643,14.950 C24.299,15.426 25.588,14.723 26.510,12.840 C27.244,12.747 27.947,12.278 28.619,11.434 C29.111,11.668 29.814,11.786 30.729,11.786 L31.080,12.137 C31.088,12.801 30.736,13.387 30.025,13.895 L30.025,14.598 ZM27.916,13.192 L27.213,13.543 C27.244,13.965 27.010,14.200 26.510,14.247 C26.682,14.989 27.033,15.106 27.564,14.598 C28.596,14.215 28.713,13.747 27.916,13.192 ZM27.424,10.321 C26.588,10.860 26.002,11.485 25.666,12.196 C25.151,12.282 24.565,12.633 23.909,13.250 C23.119,13.118 22.182,13.352 21.096,13.954 L18.284,13.954 L17.581,14.305 L16.526,14.305 C16.424,14.875 16.073,15.461 15.471,16.063 L15.120,16.766 C14.799,17.149 14.565,17.383 14.416,17.469 C14.252,18.008 13.901,18.594 13.362,19.227 L13.010,19.930 C13.659,20.336 14.596,20.571 15.823,20.633 L15.823,21.688 L9.495,21.688 L8.791,22.391 L8.088,22.039 C7.854,22.000 7.620,22.118 7.385,22.391 L5.979,22.391 C5.791,22.063 5.674,21.594 5.627,20.985 C6.463,20.610 7.635,20.493 9.143,20.633 C9.448,20.469 9.799,20.000 10.198,19.227 C10.557,18.969 10.909,18.383 11.252,17.469 C11.830,16.977 12.182,16.391 12.307,15.711 L13.010,14.305 L13.713,13.954 L13.713,13.250 L14.416,12.899 L14.416,12.196 L15.471,11.141 C15.916,10.735 16.268,10.032 16.526,9.032 L17.229,9.032 C17.737,7.524 15.979,7.055 11.956,7.625 C11.768,7.297 11.651,6.829 11.604,6.219 L13.010,5.868 C13.557,6.227 14.143,6.227 14.768,5.868 L15.471,5.868 L16.526,6.219 L17.229,5.868 L19.690,5.868 C20.041,6.094 20.393,6.094 20.745,5.868 L22.854,5.868 C23.409,5.961 23.877,5.844 24.260,5.516 L25.666,5.868 C25.909,6.329 26.377,6.680 27.073,6.922 L27.483,8.446 L27.073,9.383 L27.424,10.321 ZM22.854,7.274 L21.448,7.274 C20.760,7.680 20.291,8.383 20.041,9.383 C19.674,9.532 19.440,9.883 19.338,10.438 L18.635,10.789 L18.635,11.493 L17.932,11.844 L17.932,12.196 C21.526,12.985 23.635,11.461 24.260,7.625 C23.932,7.625 23.463,7.508 22.854,7.274 Z" />
</svg>