<svg 
 xmlns="http://www.w3.org/2000/svg"
 xmlns:xlink="http://www.w3.org/1999/xlink"
 width="104px" height="30px" viewBox="0 0 104 30">
<path fill-rule="evenodd" stroke="rgb(60, 28, 0)" fill="rgb(60, 28, 0)"
 d="M97.368,15.295 L97.368,15.998 L97.016,16.350 C96.610,16.295 96.259,16.529 95.962,17.053 C95.282,16.842 94.696,17.076 94.204,17.756 C93.688,17.717 93.102,17.951 92.446,18.459 L92.446,19.514 C93.548,20.076 94.602,19.842 95.610,18.810 L96.665,18.810 L96.665,19.865 C95.688,19.943 94.868,20.529 94.204,21.623 L92.798,21.623 C92.149,21.920 91.094,21.568 89.634,20.568 C89.641,20.146 89.876,19.443 90.337,18.459 L90.337,17.756 C89.485,17.920 88.938,17.607 88.696,16.818 C88.313,15.631 88.743,15.475 89.985,16.350 C91.641,16.826 92.930,16.123 93.852,14.240 C94.587,14.146 95.290,13.678 95.962,12.834 C96.454,13.068 97.157,13.185 98.071,13.185 L98.423,13.537 C98.430,14.201 98.079,14.787 97.368,15.295 ZM95.259,14.592 L94.556,14.943 C94.587,15.365 94.352,15.600 93.852,15.646 C94.024,16.389 94.376,16.506 94.907,15.998 C95.938,15.615 96.056,15.147 95.259,14.592 ZM90.349,14.240 C90.115,14.303 89.880,14.537 89.646,14.943 C87.740,14.685 86.450,15.506 85.779,17.404 L85.076,17.756 C83.560,20.607 84.263,21.545 87.185,20.568 L87.185,21.271 C86.497,21.357 85.911,21.709 85.427,22.326 C85.076,22.295 84.724,22.412 84.372,22.678 L82.966,22.678 C81.997,21.912 81.529,20.857 81.560,19.514 C82.255,19.100 82.724,18.396 82.966,17.404 C83.958,17.045 84.310,16.342 84.021,15.295 C82.794,15.131 81.915,15.150 81.384,15.353 L80.564,14.592 L80.915,13.713 L81.911,13.889 L83.318,13.537 L85.779,13.537 L86.482,12.131 C86.552,11.693 87.021,11.107 87.888,10.373 C88.943,10.326 89.646,10.795 89.997,11.779 C89.583,12.006 89.114,12.475 88.591,13.185 C89.521,12.990 90.107,13.342 90.349,14.240 ZM79.697,14.299 L79.697,18.166 L78.994,19.221 L78.994,19.924 C78.635,20.104 78.400,20.455 78.291,20.978 L77.236,21.682 L75.478,21.330 C74.384,22.564 72.978,23.033 71.260,22.736 C70.963,21.877 70.963,20.705 71.260,19.221 C71.494,19.166 71.728,18.932 71.963,18.517 C74.205,18.611 75.845,17.557 76.885,15.353 C77.650,15.088 78.236,14.385 78.642,13.244 C79.353,13.088 79.939,12.502 80.400,11.486 L81.806,11.486 L81.806,12.541 L80.752,13.596 L79.697,14.299 ZM75.830,18.166 C75.580,18.533 75.111,19.002 74.424,19.572 L74.072,20.275 C74.330,21.252 74.799,21.369 75.478,20.627 C77.119,18.838 77.236,18.018 75.830,18.166 ZM70.768,15.998 L70.416,16.350 C70.010,16.295 69.658,16.529 69.362,17.053 C68.682,16.842 68.096,17.076 67.604,17.756 C67.088,17.717 66.502,17.951 65.846,18.459 L65.846,19.514 C66.948,20.076 68.002,19.842 69.010,18.810 L70.065,18.810 L70.065,19.865 C69.088,19.943 68.268,20.529 67.604,21.623 L66.198,21.623 C65.549,21.920 64.494,21.568 63.033,20.568 C63.041,20.146 63.276,19.443 63.737,18.459 L63.737,17.756 C62.885,17.920 62.338,17.607 62.096,16.818 C61.713,15.631 62.143,15.475 63.385,16.350 C65.041,16.826 66.330,16.123 67.252,14.240 C67.986,14.146 68.690,13.678 69.362,12.834 C69.854,13.068 70.557,13.185 71.471,13.185 L71.823,13.537 C71.830,14.201 71.479,14.787 70.768,15.295 L70.768,15.998 ZM68.658,14.592 L67.955,14.943 C67.986,15.365 67.752,15.600 67.252,15.646 C67.424,16.389 67.776,16.506 68.307,15.998 C69.338,15.615 69.455,15.147 68.658,14.592 ZM62.823,14.521 C62.534,14.295 62.065,14.295 61.417,14.521 L61.065,15.928 C59.901,16.342 59.081,17.279 58.604,18.740 L57.550,19.795 L57.550,20.498 L56.495,20.850 L56.495,21.553 C56.206,22.248 55.737,22.482 55.089,22.256 C53.753,22.475 52.932,22.123 52.628,21.201 L51.925,21.201 C51.854,20.803 51.971,20.217 52.276,19.443 C52.432,18.740 52.550,18.271 52.628,18.037 C53.346,17.818 53.932,17.232 54.386,16.279 L54.737,15.928 C55.260,15.709 55.729,15.240 56.143,14.521 C56.628,14.623 56.862,14.389 56.846,13.818 C57.081,13.857 57.315,13.740 57.550,13.467 L58.604,13.115 L60.011,13.115 L60.362,12.764 C60.862,12.998 61.565,13.115 62.471,13.115 L64.229,13.115 L64.229,14.170 C63.674,14.076 63.206,14.193 62.823,14.521 ZM57.550,14.873 C57.253,15.060 56.901,15.529 56.495,16.279 L56.143,16.631 C55.003,16.990 54.534,17.928 54.737,19.443 C54.604,20.428 55.073,20.662 56.143,20.146 L56.846,18.740 L57.901,18.037 L58.253,17.685 C58.932,15.982 58.698,15.045 57.550,14.873 ZM48.937,15.236 L48.937,15.939 C48.077,16.103 47.609,16.689 47.531,17.697 C46.968,18.158 46.616,18.979 46.476,20.158 C47.890,20.697 49.179,20.228 50.343,18.752 C49.593,21.635 47.718,22.689 44.718,21.916 L44.015,21.564 C43.905,20.580 44.140,19.642 44.718,18.752 C43.952,18.822 43.366,19.291 42.960,20.158 C42.195,20.283 41.609,20.752 41.202,21.564 L40.499,21.213 L40.499,20.159 C40.311,20.356 40.175,20.625 40.101,20.978 L39.047,21.682 L37.289,21.330 C36.195,22.564 34.789,23.033 33.070,22.736 C32.800,21.953 32.778,20.908 33.001,19.607 C32.747,19.734 32.277,19.859 31.535,19.982 L31.535,20.685 C31.301,20.748 31.067,20.982 30.832,21.389 C30.231,21.381 29.762,21.732 29.426,22.443 C27.363,22.576 26.309,21.639 26.262,19.631 C26.848,19.146 27.199,18.561 27.317,17.873 C28.473,17.529 28.941,16.592 28.723,15.060 L28.020,15.060 L28.371,14.357 L29.074,14.006 C29.762,14.178 30.465,13.943 31.184,13.303 C31.527,13.928 31.645,14.748 31.535,15.764 C27.824,19.912 27.824,21.084 31.535,19.279 C31.785,18.912 32.248,18.871 32.924,19.156 C33.004,19.190 33.015,19.223 33.064,19.257 C33.066,19.245 33.068,19.233 33.070,19.221 C33.304,19.166 33.539,18.932 33.773,18.517 C36.015,18.611 37.656,17.557 38.695,15.353 C39.461,15.088 40.047,14.385 40.453,13.244 C41.164,13.088 41.750,12.502 42.211,11.486 L43.617,11.486 L43.617,12.541 L42.562,13.596 L41.508,14.299 L41.508,18.166 L40.804,19.221 L40.804,19.924 C40.688,19.982 40.590,20.064 40.500,20.158 C41.180,20.189 41.765,19.837 42.257,19.103 C42.937,19.135 43.523,18.783 44.015,18.049 C44.249,17.994 44.484,17.760 44.718,17.346 C45.320,17.353 45.788,17.002 46.124,16.291 L47.531,15.588 L48.234,14.533 L49.288,14.182 L50.343,13.127 C50.663,13.330 51.132,13.330 51.749,13.127 L51.749,15.939 L50.343,16.642 C50.280,16.080 49.812,15.611 48.937,15.236 ZM37.640,18.166 C37.390,18.533 36.921,19.002 36.234,19.572 L35.883,20.275 C36.140,21.252 36.609,21.369 37.289,20.627 C38.929,18.838 39.047,18.018 37.640,18.166 ZM32.590,6.623 L33.645,5.568 C34.067,5.592 34.535,6.060 35.051,6.975 C33.926,9.139 33.106,9.021 32.590,6.623 ZM26.743,14.123 L25.688,14.475 C25.352,14.654 24.883,14.772 24.282,14.826 L23.930,15.178 L22.524,15.529 L23.227,16.935 L23.227,19.748 L22.524,20.451 L22.524,21.857 C23.930,22.428 25.337,22.311 26.743,21.506 L26.743,22.560 C26.227,22.693 25.758,23.045 25.337,23.615 C24.844,23.615 24.258,23.850 23.579,24.318 L22.876,24.670 L21.118,23.967 C20.899,23.443 20.430,22.975 19.712,22.560 L19.712,21.857 C19.477,21.295 19.477,20.709 19.712,20.100 L19.712,18.342 L20.063,17.639 L20.415,16.935 C20.430,16.701 20.313,16.467 20.063,16.232 L17.602,16.232 L17.602,16.935 C17.243,17.115 17.008,17.467 16.899,17.990 C16.204,18.404 15.735,19.107 15.493,20.100 C14.868,20.568 14.516,21.271 14.438,22.209 C14.961,22.467 15.665,22.467 16.548,22.209 L17.251,22.209 L17.251,23.264 L16.196,23.615 C15.860,23.287 15.508,23.287 15.141,23.615 C14.790,23.584 14.438,23.701 14.087,23.967 C13.563,23.576 12.977,23.576 12.329,23.967 L7.055,23.967 C6.821,23.928 6.587,24.045 6.352,24.318 L5.649,23.967 L5.649,22.560 C6.297,22.795 7.001,22.678 7.758,22.209 C8.298,22.420 9.118,22.420 10.219,22.209 C10.680,21.857 10.915,21.271 10.923,20.451 L11.626,20.100 L12.329,18.693 L13.383,17.990 L13.735,17.287 L14.087,16.584 C14.321,16.506 14.555,16.272 14.790,15.881 L15.141,15.178 L15.844,14.475 L16.196,13.420 L16.899,12.717 C16.743,12.100 16.977,11.748 17.602,11.662 L17.602,10.607 L18.657,9.553 L18.657,8.498 C18.102,8.404 17.633,8.521 17.251,8.850 L16.548,8.850 L15.493,8.498 L14.790,8.850 C14.149,8.482 13.329,8.482 12.329,8.850 L10.571,8.850 L10.571,7.443 C11.219,7.678 11.922,7.560 12.680,7.092 L16.196,7.092 L16.548,7.443 L16.899,7.092 L17.602,7.443 C18.235,7.139 19.173,7.021 20.415,7.092 C20.766,7.123 21.118,7.006 21.469,6.740 C22.180,7.115 23.118,7.115 24.282,6.740 L24.985,7.092 L25.337,6.740 L26.743,6.740 L27.446,7.092 C27.766,7.631 28.235,7.982 28.852,8.146 C29.266,10.053 28.563,11.811 26.743,13.420 L26.743,14.123 ZM22.524,8.498 C21.758,8.920 21.290,9.740 21.118,10.959 C20.516,11.451 20.047,12.037 19.712,12.717 L19.360,13.420 L19.008,14.123 L21.821,14.123 C26.126,10.436 26.360,8.561 22.524,8.498 Z"/>
</svg>