<svg 
 xmlns="http://www.w3.org/2000/svg"
 xmlns:xlink="http://www.w3.org/1999/xlink"
 width="113px" height="30px" viewBox="0 0 113 30">
<path fill-rule="evenodd"  fill="rgb(60, 28, 0)" stroke="rgb(60, 28, 0)"
 d="M106.120,14.874 C105.831,14.647 105.362,14.647 104.714,14.874 L104.362,16.280 C103.198,16.694 102.378,17.632 101.901,19.093 L100.847,20.147 L100.847,20.850 L99.792,21.202 L99.792,21.905 C99.503,22.600 99.034,22.835 98.386,22.608 C97.050,22.827 96.230,22.475 95.925,21.553 L95.222,21.553 C95.151,21.155 95.269,20.569 95.573,19.796 C95.729,19.093 95.847,18.624 95.925,18.389 C96.644,18.171 97.229,17.585 97.683,16.632 L98.034,16.280 C98.558,16.061 99.026,15.593 99.440,14.874 C99.925,14.975 100.159,14.741 100.144,14.171 C100.378,14.210 100.612,14.093 100.847,13.819 L101.901,13.468 L103.308,13.468 L103.659,13.116 C104.159,13.350 104.862,13.468 105.769,13.468 L107.526,13.468 L107.526,14.522 C106.972,14.428 106.503,14.546 106.120,14.874 ZM100.847,15.225 C100.550,15.413 100.198,15.882 99.792,16.632 L99.440,16.983 C98.300,17.343 97.831,18.280 98.034,19.796 C97.901,20.780 98.370,21.014 99.440,20.499 L100.144,19.093 L101.198,18.389 L101.550,18.038 C102.230,16.335 101.995,15.397 100.847,15.225 ZM93.816,6.975 L94.871,5.921 C95.293,5.944 95.761,6.413 96.277,7.327 C95.152,9.491 94.332,9.374 93.816,6.975 ZM92.761,20.335 L92.761,21.038 C92.527,21.100 92.293,21.335 92.058,21.741 C91.456,21.733 90.988,22.085 90.652,22.796 C88.589,22.929 87.535,21.991 87.488,19.983 C88.074,19.499 88.425,18.913 88.543,18.225 C89.699,17.882 90.167,16.944 89.949,15.413 L89.246,15.413 L89.597,14.710 L90.300,14.358 C90.988,14.530 91.691,14.296 92.410,13.655 C92.753,14.280 92.871,15.100 92.761,16.116 C89.050,20.264 89.050,21.436 92.761,19.632 C93.011,19.264 93.474,19.223 94.150,19.509 C94.826,19.794 94.363,20.069 92.761,20.335 ZM85.930,16.936 C85.203,17.202 84.383,17.085 83.469,16.585 L83.117,17.288 C81.195,17.679 80.023,18.968 79.602,21.155 C79.242,21.335 79.008,21.686 78.898,22.210 L77.492,22.913 L76.789,22.913 L76.438,21.858 L77.141,20.452 L77.492,19.749 C78.727,19.249 79.430,18.077 79.602,16.233 L79.953,15.882 L78.898,15.882 L77.492,15.530 L77.141,14.827 C78.141,15.124 79.312,14.890 80.656,14.124 L82.414,14.124 L82.766,15.530 C83.664,15.311 84.367,14.725 84.875,13.772 L85.930,13.772 C85.891,14.007 86.008,14.241 86.281,14.475 C86.352,14.874 86.234,15.460 85.930,16.233 L85.930,16.936 ZM73.872,19.280 C73.301,19.491 73.067,20.077 73.168,21.038 C74.637,20.866 75.692,20.163 76.333,18.928 C76.739,18.983 76.621,19.804 75.981,21.389 C75.168,21.491 74.348,21.960 73.520,22.796 L72.465,22.796 C71.207,21.116 70.036,21.116 68.950,22.796 C68.395,22.702 67.926,22.819 67.543,23.147 L66.840,23.147 C66.543,22.546 66.075,22.194 65.434,22.093 L65.786,20.686 L65.786,19.983 C66.387,19.686 66.739,19.218 66.840,18.577 C67.301,18.335 67.653,17.866 67.895,17.171 C69.012,16.952 70.067,16.132 71.059,14.710 C71.575,14.577 72.043,14.225 72.465,13.655 L75.278,14.007 L75.278,13.303 C75.778,13.444 76.246,13.913 76.684,14.710 C76.246,14.999 76.012,15.585 75.981,16.468 C74.778,16.772 74.075,17.710 73.872,19.280 ZM72.465,15.413 C71.981,15.882 71.161,16.233 70.004,16.468 L69.653,16.819 C67.075,22.147 68.247,22.147 73.168,16.819 C73.301,16.225 73.067,15.757 72.465,15.413 ZM61.216,20.628 C61.763,20.433 62.348,20.433 62.974,20.628 L62.270,21.682 L61.919,22.386 C61.567,22.354 61.216,22.472 60.864,22.737 C58.794,22.823 57.856,21.768 58.052,19.573 C58.411,19.393 58.645,19.042 58.755,18.518 C59.239,18.620 59.474,18.386 59.458,17.815 C60.020,17.651 60.489,17.300 60.864,16.761 C61.028,16.221 61.380,15.636 61.919,15.003 L62.622,14.300 L62.974,13.596 L64.380,13.596 L64.380,15.354 C63.997,15.565 63.645,16.151 63.325,17.112 C62.114,17.667 61.411,18.839 61.216,20.628 ZM58.052,16.761 L57.700,17.464 L56.997,17.815 L56.645,18.167 L55.942,19.573 L55.942,20.276 C56.020,21.011 56.489,21.128 57.349,20.628 L57.349,21.682 L56.645,21.682 C54.442,23.886 53.270,23.300 53.130,19.925 L53.833,18.518 C55.614,17.909 56.317,16.620 55.942,14.651 C56.177,14.597 56.411,14.362 56.645,13.948 C57.802,13.706 58.739,14.058 59.458,15.003 L58.755,16.409 L58.052,16.761 ZM54.900,14.593 C54.665,14.655 54.431,14.890 54.197,15.296 C52.290,15.038 51.001,15.858 50.330,17.757 L49.626,18.108 C48.111,20.960 48.814,21.897 51.736,20.921 L51.736,21.624 C51.048,21.710 50.462,22.061 49.978,22.678 C49.626,22.647 49.275,22.765 48.923,23.030 L47.517,23.030 C46.548,22.264 46.079,21.210 46.111,19.866 C46.806,19.452 47.275,18.749 47.517,17.757 C48.509,17.397 48.861,16.694 48.572,15.647 C47.345,15.483 46.466,15.503 45.935,15.706 L45.115,14.944 L45.466,14.065 L46.462,14.241 L47.869,13.889 L50.330,13.889 L51.033,12.483 C51.103,12.046 51.572,11.460 52.439,10.725 C53.494,10.678 54.197,11.147 54.548,12.132 C54.134,12.358 53.665,12.827 53.142,13.538 C54.072,13.343 54.658,13.694 54.900,14.593 ZM43.768,16.468 C42.346,17.460 41.642,18.866 41.658,20.686 C42.572,20.913 43.158,20.561 43.416,19.632 C43.822,19.686 44.174,19.452 44.471,18.928 C46.588,18.757 46.763,19.089 44.998,19.925 L44.119,21.389 C43.557,21.241 42.971,21.475 42.361,22.093 C41.056,22.233 40.353,23.053 40.252,24.553 L38.846,24.202 C38.900,23.796 38.666,23.444 38.143,23.147 C38.838,22.296 39.072,21.124 38.846,19.632 L39.549,18.225 C40.877,17.624 41.697,16.569 42.010,15.061 C40.963,15.007 40.142,15.593 39.549,16.819 C38.455,17.179 37.752,17.999 37.439,19.280 C36.603,19.624 36.135,20.327 36.033,21.389 L34.978,22.444 C33.861,22.608 33.275,22.139 33.221,21.038 L33.924,19.632 L34.627,19.280 L34.978,18.577 L35.330,17.522 L36.033,17.522 L36.033,16.819 C36.510,16.561 36.861,15.975 37.088,15.061 C37.330,14.772 37.564,14.186 37.791,13.303 L40.252,13.303 C40.299,13.905 40.533,14.022 40.955,13.655 C41.541,13.585 42.010,13.233 42.361,12.600 L43.768,12.952 L44.471,12.952 L44.822,14.710 L44.119,16.116 L43.768,16.468 ZM29.565,19.280 C28.994,19.491 28.760,20.077 28.862,21.038 C30.330,20.866 31.385,20.163 32.026,18.928 C32.432,18.983 32.315,19.804 31.674,21.389 C30.862,21.491 30.041,21.960 29.213,22.796 L28.159,22.796 C26.901,21.116 25.729,21.116 24.643,22.796 C24.088,22.702 23.619,22.819 23.237,23.147 L22.534,23.147 C22.237,22.546 21.768,22.194 21.127,22.093 L21.479,20.686 L21.479,19.983 C22.080,19.686 22.432,19.218 22.534,18.577 C22.994,18.335 23.346,17.866 23.588,17.171 C24.705,16.952 25.760,16.132 26.752,14.710 C27.268,14.577 27.737,14.225 28.159,13.655 L30.971,14.007 L30.971,13.303 C31.471,13.444 31.940,13.913 32.377,14.710 C31.940,14.999 31.705,15.585 31.674,16.468 C30.471,16.772 29.768,17.710 29.565,19.280 ZM28.159,15.413 C27.674,15.882 26.854,16.233 25.698,16.468 L25.346,16.819 C22.768,22.147 23.940,22.147 28.862,16.819 C28.994,16.225 28.760,15.757 28.159,15.413 ZM21.866,10.198 C21.132,8.472 19.725,8.823 17.647,11.253 L17.647,12.307 C16.991,12.964 16.757,14.018 16.944,15.471 L16.944,16.878 L16.593,17.581 L16.241,18.636 L15.890,19.339 L15.538,20.745 C14.421,20.854 13.718,21.558 13.429,22.854 L11.671,23.206 L10.616,23.557 C9.882,23.690 8.710,23.339 7.100,22.503 C6.733,22.651 6.499,23.003 6.397,23.557 L4.991,23.557 L4.991,22.151 C5.975,21.854 6.679,21.034 7.100,19.690 C7.835,19.268 8.303,18.565 8.507,17.581 L9.561,17.932 C8.874,19.136 8.757,20.425 9.210,21.800 C10.311,21.987 11.366,21.636 12.374,20.745 C12.811,20.253 13.163,19.432 13.429,18.284 L13.780,17.932 C13.725,16.276 14.077,15.065 14.835,14.300 C14.733,12.378 15.436,10.893 16.944,9.846 L16.944,9.143 L17.999,8.792 L19.054,7.737 L20.108,7.386 L21.515,7.034 L22.218,7.034 L23.683,7.620 L24.679,8.792 C25.757,8.815 26.811,8.346 27.843,7.386 C27.960,8.386 26.495,9.948 23.448,12.073 C21.753,12.432 21.225,11.808 21.866,10.198 Z"/>
</svg>