<svg 
 xmlns="http://www.w3.org/2000/svg"
 xmlns:xlink="http://www.w3.org/1999/xlink"
 width="106px" height="50px" viewBox="0 0 106 50">
<path fill-rule="evenodd" stroke="rgb(60, 28, 0)" fill="rgb(60, 28, 0)"
 d="M99.811,14.142 L98.756,14.845 L98.756,18.712 L98.053,19.767 L98.053,20.470 C97.693,20.649 97.459,21.001 97.350,21.524 L96.295,22.227 L94.537,21.876 C93.443,23.110 92.037,23.579 90.318,23.282 C90.120,22.706 90.066,21.978 90.134,21.122 C90.079,21.269 90.022,21.419 89.956,21.583 C89.143,21.685 88.323,22.153 87.495,22.989 L86.440,22.989 C85.182,21.310 84.010,21.310 82.924,22.989 C82.369,22.895 81.901,23.013 81.518,23.341 L80.815,23.341 C80.518,22.739 80.049,22.388 79.409,22.286 L79.760,20.880 L79.760,20.177 C80.362,19.880 80.713,19.411 80.815,18.770 C81.276,18.528 81.627,18.060 81.870,17.364 C82.987,17.146 84.041,16.325 85.034,14.903 C85.549,14.770 86.018,14.419 86.440,13.849 L89.252,14.200 L89.252,13.497 C89.752,13.638 90.221,14.106 90.659,14.903 C90.221,15.192 89.987,15.778 89.956,16.661 C88.752,16.966 88.049,17.903 87.846,19.474 C87.276,19.684 87.041,20.270 87.143,21.231 C88.612,21.060 89.666,20.356 90.307,19.122 C90.488,19.146 90.559,19.332 90.532,19.661 C90.695,19.547 90.858,19.352 91.021,19.063 C93.264,19.157 94.904,18.102 95.943,15.899 C96.709,15.634 97.295,14.931 97.701,13.790 C98.412,13.634 98.998,13.048 99.459,12.032 L100.865,12.032 L100.865,13.087 L99.811,14.142 ZM87.143,17.013 C87.276,16.419 87.041,15.950 86.440,15.606 C85.955,16.075 85.135,16.427 83.979,16.661 L83.627,17.013 C81.049,22.341 82.221,22.341 87.143,17.013 ZM94.889,18.712 C94.639,19.079 94.170,19.548 93.482,20.118 L93.131,20.821 C93.389,21.798 93.857,21.915 94.537,21.173 C96.178,19.384 96.295,18.564 94.889,18.712 ZM77.851,17.130 C77.124,17.395 76.304,17.278 75.390,16.778 L75.038,17.481 C73.116,17.872 71.944,19.161 71.522,21.349 C71.163,21.528 70.929,21.880 70.819,22.403 L69.413,23.106 L68.710,23.106 L68.358,22.052 L69.061,20.645 L69.413,19.942 C70.647,19.442 71.350,18.271 71.522,16.427 L71.874,16.075 L70.819,16.075 L69.413,15.724 L69.061,15.020 C70.061,15.317 71.233,15.083 72.577,14.317 L74.335,14.317 L74.686,15.724 C75.585,15.505 76.288,14.919 76.796,13.966 L77.851,13.966 C77.811,14.200 77.929,14.434 78.202,14.669 C78.272,15.067 78.155,15.653 77.851,16.427 L77.851,17.130 ZM67.984,17.130 C67.257,17.395 66.437,17.278 65.523,16.778 L65.171,17.481 C63.249,17.872 62.078,19.161 61.656,21.349 C61.296,21.528 61.062,21.880 60.953,22.403 L59.546,23.106 L58.843,23.106 L58.492,22.052 L59.195,20.645 L59.546,19.942 C60.781,19.442 61.484,18.271 61.656,16.427 L62.007,16.075 L60.953,16.075 L59.546,15.724 L59.195,15.020 C60.195,15.317 61.367,15.083 62.710,14.317 L64.468,14.317 L64.820,15.724 C65.718,15.505 66.421,14.919 66.929,13.966 L67.984,13.966 C67.945,14.200 68.062,14.434 68.335,14.669 C68.406,15.067 68.289,15.653 67.984,16.427 L67.984,17.130 ZM57.906,16.544 L57.555,16.895 C57.148,16.841 56.797,17.075 56.500,17.599 C55.820,17.388 55.234,17.622 54.742,18.302 C54.226,18.263 53.641,18.497 52.984,19.005 L52.984,20.059 C54.086,20.622 55.141,20.388 56.148,19.356 L57.203,19.356 L57.203,20.411 C56.226,20.489 55.406,21.075 54.742,22.169 L53.336,22.169 C52.687,22.466 51.633,22.114 50.172,21.114 C50.179,20.692 50.414,19.989 50.875,19.005 L50.875,18.302 C50.023,18.466 49.477,18.153 49.234,17.364 C48.852,16.177 49.281,16.021 50.523,16.895 C52.180,17.372 53.469,16.669 54.391,14.786 C55.125,14.692 55.828,14.224 56.500,13.380 C56.992,13.614 57.695,13.731 58.609,13.731 L58.961,14.083 C58.969,14.747 58.617,15.333 57.906,15.841 L57.906,16.544 ZM55.797,15.138 L55.094,15.489 C55.125,15.911 54.890,16.145 54.391,16.192 C54.562,16.935 54.914,17.052 55.445,16.544 C56.476,16.161 56.594,15.692 55.797,15.138 ZM48.649,7.169 L49.704,6.114 C50.125,6.138 50.594,6.606 51.110,7.520 C49.985,9.685 49.164,9.567 48.649,7.169 ZM47.594,20.528 L47.594,21.231 C47.360,21.294 47.125,21.528 46.891,21.934 C46.289,21.927 45.821,22.278 45.485,22.989 C43.422,23.122 42.368,22.185 42.321,20.177 C42.907,19.692 43.258,19.106 43.375,18.419 C44.532,18.075 45.000,17.138 44.782,15.606 L44.079,15.606 L44.430,14.903 L45.133,14.552 C45.821,14.724 46.524,14.489 47.243,13.849 C47.586,14.474 47.703,15.294 47.594,16.309 C43.883,20.458 43.883,21.630 47.594,19.825 C47.844,19.458 48.307,19.417 48.983,19.702 C49.658,19.987 49.196,20.263 47.594,20.528 ZM46.599,8.575 L46.599,9.278 L45.895,9.278 L44.841,9.981 C43.700,9.677 42.528,9.911 41.325,10.684 C40.630,10.192 40.044,10.309 39.567,11.036 L38.864,12.442 L37.809,13.145 L37.458,14.200 C37.224,14.185 37.009,14.298 36.813,14.540 C36.618,14.782 36.364,15.255 36.052,15.958 L35.700,16.661 L34.997,17.364 L34.645,18.067 L34.645,18.770 L34.294,19.474 L33.239,20.177 L33.239,21.231 L32.888,21.934 C33.325,22.130 34.028,22.130 34.997,21.934 L35.349,22.286 L34.997,23.692 L33.239,24.044 L31.423,24.220 L26.911,24.044 L25.563,24.395 C24.946,23.747 24.692,23.161 24.802,22.638 L25.856,21.934 L29.724,21.934 L30.427,21.231 L31.130,20.177 L31.481,19.474 L32.184,18.419 L32.536,17.013 L33.239,16.661 C33.419,15.958 33.653,15.489 33.942,15.255 L33.942,14.552 C34.677,14.130 35.145,13.427 35.349,12.442 C35.833,12.544 36.067,12.310 36.052,11.739 L36.755,11.036 C35.598,9.849 34.309,9.966 32.888,11.388 C32.138,11.114 31.317,11.583 30.427,12.794 C29.888,14.716 30.356,15.184 31.833,14.200 C32.114,13.536 32.817,12.950 33.942,12.442 C33.973,13.044 33.739,13.513 33.239,13.849 C33.247,14.239 33.012,14.825 32.536,15.606 C32.098,15.872 31.747,16.224 31.481,16.661 L30.075,17.013 L28.669,17.013 C28.489,16.653 28.137,16.419 27.614,16.309 C27.645,15.958 27.528,15.606 27.263,15.255 L27.614,13.849 L27.614,13.145 C28.481,12.731 29.184,12.028 29.724,11.036 C30.817,11.013 31.872,10.544 32.888,9.630 C33.122,9.669 33.356,9.552 33.591,9.278 L34.294,8.927 L36.052,8.927 L37.809,8.224 C38.138,8.224 38.606,8.341 39.216,8.575 L42.380,8.575 C42.950,8.146 43.302,7.325 43.434,6.114 C43.669,6.153 43.903,6.036 44.138,5.763 L44.841,6.114 C45.192,5.880 45.544,5.880 45.895,6.114 L46.599,6.114 C46.403,6.653 46.520,7.239 46.950,7.872 L46.599,8.575 ZM20.256,32.032 L19.553,33.790 C19.069,33.689 18.834,33.923 18.850,34.493 L17.795,34.845 L17.444,35.548 L17.092,36.602 L16.037,37.306 L16.037,38.009 C15.436,38.415 15.084,39.001 14.983,39.767 C14.444,40.087 14.092,40.556 13.928,41.173 C13.334,41.196 12.865,41.548 12.522,42.227 C14.444,42.837 15.147,42.368 14.631,40.821 C14.866,40.860 15.100,40.743 15.334,40.470 C16.600,41.392 17.537,41.040 18.147,39.415 C18.826,39.431 19.295,38.962 19.553,38.009 L20.959,38.009 L20.959,39.063 C20.600,39.243 20.365,39.595 20.256,40.118 C20.022,40.196 19.787,40.431 19.553,40.821 C19.233,41.204 18.998,41.438 18.850,41.524 L18.850,42.931 C18.365,42.829 18.131,43.064 18.147,43.634 C17.545,43.626 17.076,43.978 16.741,44.688 C15.819,44.954 14.998,44.720 14.280,43.985 C13.537,44.220 12.717,44.220 11.819,43.985 C11.194,44.274 10.256,44.392 9.006,44.337 C8.772,44.298 8.537,44.415 8.303,44.688 L6.897,44.688 L6.194,44.337 C5.412,44.259 5.315,43.751 5.901,42.813 L7.951,42.931 C8.889,42.681 9.475,41.978 9.709,40.821 C10.342,40.571 10.811,39.985 11.116,39.063 L12.170,38.009 C12.842,37.915 13.311,37.446 13.576,36.602 C14.178,36.196 14.530,35.610 14.631,34.845 C15.873,34.274 16.459,33.337 16.389,32.032 C13.428,32.587 12.725,32.001 14.280,30.274 L20.256,30.274 C20.491,30.314 20.725,30.196 20.959,29.923 L22.717,29.923 L23.772,30.626 L23.420,32.032 L20.256,32.032 ZM23.092,38.583 C23.810,38.364 24.396,37.778 24.849,36.825 L25.201,36.474 C25.724,36.255 26.193,35.786 26.607,35.067 C27.092,35.169 27.326,34.935 27.310,34.364 C27.545,34.403 27.779,34.286 28.014,34.013 L29.068,33.661 L30.474,33.661 L30.826,33.309 C31.326,33.544 32.029,33.661 32.935,33.661 L34.693,33.661 L34.693,34.716 C34.158,34.625 33.705,34.736 33.330,35.038 C34.313,35.301 35.458,35.063 36.767,34.317 L38.525,34.317 L38.876,35.724 C39.775,35.505 40.478,34.919 40.986,33.966 L42.040,33.966 C42.001,34.200 42.118,34.434 42.392,34.669 C42.462,35.067 42.345,35.653 42.040,36.427 L42.040,37.130 C41.314,37.395 40.494,37.278 39.579,36.778 L39.228,37.481 C37.306,37.872 36.134,39.161 35.712,41.349 C35.353,41.528 35.118,41.880 35.009,42.403 L33.603,43.106 L32.900,43.106 L32.548,42.052 L33.251,40.645 L33.603,39.942 C34.837,39.442 35.540,38.271 35.712,36.427 L36.064,36.075 L35.009,36.075 L33.603,35.724 L33.271,35.059 C32.980,34.843 32.519,34.844 31.881,35.067 L31.529,36.474 C30.365,36.888 29.545,37.825 29.068,39.286 L28.014,40.341 L28.014,41.044 L26.959,41.395 L26.959,42.099 C26.670,42.794 26.201,43.028 25.553,42.802 C24.217,43.020 23.396,42.669 23.092,41.747 L22.389,41.747 C22.318,41.349 22.435,40.763 22.740,39.989 C22.896,39.286 23.013,38.817 23.092,38.583 ZM26.607,40.692 L27.310,39.286 L28.365,38.583 L28.717,38.231 C29.396,36.528 29.162,35.591 28.014,35.419 C27.717,35.606 27.365,36.075 26.959,36.825 L26.607,37.177 C25.467,37.536 24.998,38.474 25.201,39.989 C25.068,40.974 25.537,41.208 26.607,40.692 Z"/>
</svg>