<svg 
 xmlns="http://www.w3.org/2000/svg"
 xmlns:xlink="http://www.w3.org/1999/xlink"
 width="88px" height="30px" viewBox="0 0 88 30">
<path fill-rule="evenodd" stroke="rgb(60, 28, 0)" fill="rgb(60, 28, 0)"
 d="M81.569,15.118 C81.280,14.891 80.811,14.891 80.163,15.118 L79.812,16.524 C78.647,16.938 77.827,17.876 77.351,19.337 L76.296,20.391 L76.296,21.094 L75.241,21.446 L75.241,22.149 C74.952,22.845 74.483,23.079 73.835,22.852 C72.499,23.071 71.679,22.719 71.374,21.798 L70.671,21.798 C70.601,21.399 70.718,20.813 71.022,20.040 C71.179,19.337 71.296,18.868 71.374,18.633 C72.093,18.415 72.679,17.829 73.132,16.876 L73.483,16.524 C74.007,16.305 74.475,15.837 74.890,15.118 C75.374,15.219 75.608,14.985 75.593,14.415 C75.827,14.454 76.062,14.337 76.296,14.063 L77.351,13.712 L78.757,13.712 L79.108,13.360 C79.608,13.594 80.311,13.712 81.218,13.712 L82.976,13.712 L82.976,14.766 C82.421,14.673 81.952,14.790 81.569,15.118 ZM76.296,15.469 C75.999,15.657 75.647,16.126 75.241,16.876 L74.890,17.227 C73.749,17.587 73.280,18.524 73.483,20.040 C73.350,21.024 73.819,21.258 74.890,20.743 L75.593,19.337 L76.647,18.633 L76.999,18.282 C77.679,16.579 77.444,15.641 76.296,15.469 ZM72.687,10.383 C72.328,10.563 72.093,10.915 71.984,11.438 C71.523,11.680 71.171,12.149 70.929,12.844 C70.609,13.227 70.374,13.462 70.226,13.548 L69.875,14.602 C69.109,15.024 68.640,15.844 68.468,17.063 L67.765,17.415 L67.765,18.469 C67.531,18.548 67.296,18.782 67.062,19.173 L66.359,19.876 L66.359,21.282 C67.124,21.212 67.710,20.743 68.117,19.876 C68.999,19.923 69.585,19.454 69.875,18.469 C70.710,19.477 70.476,20.063 69.171,20.227 C68.375,22.305 66.617,23.360 63.898,23.391 L63.546,21.633 L63.195,21.282 C63.382,20.954 63.500,20.485 63.546,19.876 L62.843,19.876 L62.843,20.579 C62.320,20.798 61.851,21.266 61.437,21.985 L60.031,22.337 L60.031,20.579 C60.797,20.454 61.382,19.985 61.789,19.173 C62.890,18.923 63.828,18.219 64.601,17.063 C65.531,16.868 66.234,16.048 66.710,14.602 L67.062,13.899 C67.851,13.766 68.320,13.180 68.468,12.141 L69.171,11.790 L69.523,11.087 L69.875,10.383 L69.875,8.977 C70.015,8.680 70.367,8.446 70.929,8.274 L71.281,7.923 C71.695,7.813 72.398,7.930 73.390,8.274 C73.421,8.876 73.187,9.345 72.687,9.680 L72.687,10.383 ZM58.086,20.872 C58.633,20.677 59.219,20.677 59.844,20.872 L59.141,21.926 L58.789,22.630 C58.437,22.598 58.086,22.716 57.734,22.981 C55.664,23.067 54.726,22.013 54.922,19.817 C55.281,19.637 55.515,19.286 55.625,18.762 C56.109,18.864 56.344,18.630 56.328,18.059 C56.891,17.895 57.359,17.544 57.734,17.005 C57.898,16.466 58.250,15.880 58.789,15.247 L59.492,14.544 L59.844,13.841 L61.250,13.841 L61.250,15.598 C60.867,15.809 60.516,16.395 60.195,17.356 C58.984,17.911 58.281,19.083 58.086,20.872 ZM54.922,17.005 L54.570,17.708 L53.867,18.059 L53.516,18.411 L52.812,19.817 L52.812,20.520 C52.890,21.255 53.359,21.372 54.219,20.872 L54.219,21.926 L53.516,21.926 C51.537,23.905 50.393,23.626 50.078,21.106 C49.750,21.464 49.094,21.853 48.067,22.278 C47.168,22.864 45.996,23.098 44.551,22.981 C44.278,22.356 44.161,21.419 44.200,20.169 C45.020,19.786 45.723,18.966 46.309,17.708 L47.012,17.708 L47.364,15.950 L46.309,16.653 C45.489,16.544 45.020,17.012 44.903,18.059 C44.418,17.958 44.184,18.192 44.200,18.762 C43.254,19.028 42.668,19.731 42.442,20.872 C41.903,21.192 41.551,21.661 41.387,22.278 C40.543,22.676 39.840,22.442 39.278,21.575 C39.911,21.137 40.379,20.434 40.684,19.466 C41.051,19.317 41.286,18.966 41.387,18.411 L42.090,18.059 L42.090,17.356 L42.793,17.005 C42.715,16.317 42.246,16.083 41.387,16.301 C41.817,15.911 42.286,15.208 42.793,14.192 L44.903,14.192 C45.332,16.091 45.918,16.208 46.661,14.544 L47.715,13.841 L49.122,13.841 L49.825,14.895 L49.825,17.005 C49.590,17.059 49.356,17.294 49.122,17.708 C47.918,18.137 46.981,19.309 46.309,21.223 C47.536,21.372 48.590,20.903 49.473,19.817 C49.710,19.917 49.880,20.023 50.018,20.132 L50.703,18.762 C52.484,18.153 53.187,16.864 52.812,14.895 C53.047,14.841 53.281,14.606 53.516,14.192 C54.672,13.950 55.609,14.302 56.328,15.247 L55.625,16.653 L54.922,17.005 ZM38.575,19.466 C38.340,19.520 38.106,19.755 37.872,20.169 C37.051,20.552 36.348,21.372 35.762,22.630 L35.411,22.981 L34.356,22.981 C34.075,21.106 33.840,20.637 33.653,21.575 L32.950,21.575 C32.971,21.416 33.024,21.277 33.069,21.134 L32.540,21.926 L32.188,22.630 C31.837,22.598 31.485,22.716 31.134,22.981 C29.063,23.067 28.126,22.013 28.321,19.817 C28.680,19.637 28.915,19.286 29.024,18.762 C29.509,18.864 29.743,18.630 29.727,18.059 C30.290,17.895 30.759,17.544 31.134,17.005 C31.298,16.466 31.649,15.880 32.188,15.247 L32.892,14.544 L33.243,13.841 L34.649,13.841 L34.649,15.598 C34.266,15.809 33.915,16.395 33.595,17.356 C32.384,17.911 31.680,19.083 31.485,20.872 C32.007,20.686 32.565,20.683 33.158,20.851 C33.432,20.239 33.945,19.775 34.707,19.466 C34.215,20.059 34.332,20.411 35.059,20.520 L35.411,19.466 L35.059,18.762 C35.543,18.864 35.778,18.630 35.762,18.059 C37.614,17.505 37.848,16.919 36.465,16.301 L36.465,15.598 C36.700,15.544 36.934,15.309 37.168,14.895 C37.707,15.091 38.293,14.973 38.926,14.544 C40.122,14.606 40.707,15.309 40.684,16.653 C40.450,16.708 40.215,16.942 39.981,17.356 C39.090,17.653 38.622,18.356 38.575,19.466 ZM32.868,10.501 C31.540,9.040 31.907,8.325 33.970,8.356 C34.626,9.255 34.880,10.270 34.731,11.403 C32.138,13.091 31.516,12.790 32.868,10.501 ZM28.321,17.005 L27.970,17.708 L27.267,18.059 L26.915,18.411 L26.212,19.817 L26.212,20.520 C26.290,21.255 26.759,21.372 27.618,20.872 L27.618,21.926 L26.915,21.926 C24.712,24.130 23.540,23.544 23.399,20.169 L24.102,18.762 C25.884,18.153 26.587,16.864 26.212,14.895 C26.446,14.841 26.681,14.606 26.915,14.192 C28.071,13.950 29.009,14.302 29.727,15.247 L29.024,16.653 L28.321,17.005 ZM27.771,8.626 L27.771,9.329 L27.068,9.329 L26.013,10.032 C24.872,9.727 23.700,9.962 22.497,10.735 C21.802,10.243 21.216,10.360 20.740,11.087 L20.037,12.493 L18.982,13.196 L18.630,14.251 C18.396,14.235 18.181,14.348 17.986,14.591 C17.790,14.833 17.536,15.305 17.224,16.008 L16.872,16.712 L16.169,17.415 L15.818,18.118 L15.818,18.821 L15.466,19.524 L14.412,20.227 L14.412,21.282 L14.060,21.985 C14.497,22.180 15.201,22.180 16.169,21.985 L16.521,22.337 L16.169,23.743 L14.412,24.094 L12.595,24.270 L8.083,24.094 L6.736,24.446 C6.119,23.798 5.865,23.212 5.974,22.688 L7.029,21.985 L10.896,21.985 L11.599,21.282 L12.302,20.227 L12.654,19.524 L13.357,18.469 L13.708,17.063 L14.412,16.712 C14.591,16.008 14.826,15.540 15.115,15.305 L15.115,14.602 C15.849,14.180 16.318,13.477 16.521,12.493 C17.005,12.594 17.240,12.360 17.224,11.790 L17.927,11.087 C16.771,9.899 15.482,10.016 14.060,11.438 C13.310,11.165 12.490,11.634 11.599,12.844 C11.060,14.766 11.529,15.235 13.005,14.251 C13.287,13.587 13.990,13.001 15.115,12.493 C15.146,13.095 14.911,13.563 14.412,13.899 C14.419,14.290 14.185,14.876 13.708,15.657 C13.271,15.923 12.919,16.274 12.654,16.712 L11.247,17.063 L9.841,17.063 C9.661,16.704 9.310,16.470 8.787,16.360 C8.818,16.008 8.700,15.657 8.435,15.305 L8.787,13.899 L8.787,13.196 C9.654,12.782 10.357,12.079 10.896,11.087 C11.990,11.063 13.044,10.594 14.060,9.680 C14.294,9.720 14.529,9.602 14.763,9.329 L15.466,8.977 L17.224,8.977 L18.982,8.274 C19.310,8.274 19.779,8.391 20.388,8.626 L23.552,8.626 C24.122,8.196 24.474,7.376 24.607,6.165 C24.841,6.204 25.076,6.087 25.310,5.813 L26.013,6.165 C26.365,5.930 26.716,5.930 27.068,6.165 L27.771,6.165 C27.576,6.704 27.693,7.290 28.122,7.923 L27.771,8.626 Z"/>
</svg>